<svg version="1.1" id="Layer_1" xmlns="http://www.w3.org/2000/svg" xmlns:xlink="http://www.w3.org/1999/xlink" x="0px" y="0px"
	 width="100%" viewBox="0 0 2048 2048" enable-background="new 0 0 2048 2048" xml:space="preserve">
<path fill="#F5B3A4" opacity="1.000000" stroke="none" 
	d="
M1208.000000,2049.000000 
	C805.333313,2049.000000 403.166656,2049.000000 1.000000,2049.000000 
	C1.000000,1366.333374 1.000000,683.666687 1.000000,1.000000 
	C683.666687,1.000000 1366.333374,1.000000 2049.000000,1.000000 
	C2049.000000,683.666687 2049.000000,1366.333374 2049.000000,2049.000000 
	C1768.833374,2049.000000 1488.666626,2049.000000 1208.000000,2049.000000 
M1177.950195,1750.149048 
	C1191.927612,1756.787476 1206.351318,1761.762451 1221.680664,1764.642944 
	C1237.713623,1767.655640 1253.676514,1767.649292 1269.699219,1766.202515 
	C1279.227051,1765.342163 1288.649292,1763.312378 1298.916626,1761.885620 
	C1302.397095,1762.902222 1305.815918,1764.378540 1309.368896,1764.854736 
	C1323.487549,1766.746826 1337.616699,1769.280640 1351.802246,1769.749023 
	C1365.525513,1770.202393 1379.421387,1769.186035 1393.068970,1767.455200 
	C1430.263794,1762.737549 1465.239990,1750.602173 1498.505493,1733.562134 
	C1557.612793,1703.284912 1606.927490,1661.244141 1647.131958,1608.498413 
	C1675.643188,1571.093506 1698.424194,1530.729614 1709.938965,1484.660278 
	C1715.538818,1462.256104 1717.173950,1439.602417 1713.314941,1416.838135 
	C1708.779785,1390.085815 1695.091553,1368.024536 1675.860840,1349.408569 
	C1667.218872,1341.042847 1657.551636,1333.736328 1648.307129,1325.913330 
	C1648.993896,1325.441162 1650.078613,1324.686279 1651.172607,1323.944946 
	C1695.358032,1294.010742 1735.678833,1259.618896 1771.593872,1220.073975 
	C1810.278198,1177.479980 1842.312378,1130.455078 1866.851685,1078.372314 
	C1888.917236,1031.539551 1903.611450,982.458374 1910.698853,931.214172 
	C1914.695190,902.319702 1916.090210,873.200195 1915.275391,843.695496 
	C1915.085205,843.059204 1914.895020,842.422852 1914.521484,840.897095 
	C1911.820190,817.468567 1909.832520,793.929565 1906.228638,770.640686 
	C1902.153198,744.305115 1894.533569,718.759155 1885.325928,693.743164 
	C1884.064697,690.316040 1884.809204,688.501648 1887.420898,686.158447 
	C1894.475586,679.828857 1901.526733,673.425720 1907.942017,666.464478 
	C1943.778076,627.577698 1961.952271,581.023254 1965.722778,528.801453 
	C1967.832764,499.577850 1964.303101,470.716003 1956.263550,442.407440 
	C1943.099243,396.053558 1919.248413,355.986206 1885.743164,321.607361 
	C1857.946289,293.085541 1825.548706,271.227325 1788.576050,256.303253 
	C1764.067017,246.410172 1738.643433,240.009460 1712.272339,238.080673 
	C1701.412720,237.286407 1690.445557,238.023300 1679.528198,237.949814 
	C1650.575073,237.754913 1623.168213,244.758026 1596.783325,256.071350 
	C1571.720947,266.817566 1549.433594,281.825073 1530.263916,301.290314 
	C1527.981323,303.608002 1526.250977,303.997559 1523.464722,302.185059 
	C1519.425903,299.557648 1515.126709,297.316895 1510.868896,295.041687 
	C1454.658447,265.004639 1394.405273,246.993011 1331.878418,236.644333 
	C1303.270386,231.909485 1274.246338,229.218430 1245.300415,227.143814 
	C1222.265991,225.492874 1199.063965,225.938080 1175.935669,225.899796 
	C1145.769165,225.849869 1115.813354,228.863480 1085.938843,232.879318 
	C1054.923462,237.048523 1024.366333,243.291046 994.157654,251.513016 
	C951.075989,263.238678 909.725403,279.104675 871.042908,301.533813 
	C867.071289,303.836700 864.906067,303.340607 861.805115,300.213257 
	C840.610046,278.837982 815.594543,263.296387 787.609253,252.401962 
	C767.796082,244.688812 747.260986,239.700439 726.119324,238.164322 
	C712.276123,237.158478 698.297668,237.889511 684.382446,238.061295 
	C679.092896,238.126572 673.766479,238.496002 668.532654,239.251816 
	C633.558838,244.302429 600.606934,255.384750 570.024292,273.149231 
	C525.592102,298.958466 490.105896,333.885071 464.299286,378.383514 
	C458.137177,389.008789 452.984192,400.219299 446.805206,410.910828 
	C443.413574,407.969147 440.021790,405.027649 436.630371,402.085724 
	C418.765167,386.588593 398.923615,374.076050 377.395813,364.475372 
	C350.632874,352.539948 322.709564,344.294617 293.250031,343.063354 
	C276.343964,342.356781 259.249359,341.829498 242.468048,343.506744 
	C218.596420,345.892731 195.510727,352.225800 173.196121,361.570740 
	C143.608795,373.961365 117.458488,391.347778 94.329659,413.332977 
	C72.030190,434.529877 54.478630,459.270111 41.031555,486.948425 
	C26.515419,516.827209 18.322014,548.510437 16.282124,581.473999 
	C13.986194,618.575012 19.490654,654.760010 32.982552,689.632263 
	C44.044987,718.225098 59.572235,744.176270 79.865288,766.959778 
	C103.454185,793.443604 131.359222,814.426392 163.725693,829.543274 
	C197.645645,845.385681 233.336884,853.422485 270.461090,853.525513 
	C289.091522,853.577271 308.023529,851.170471 326.311340,847.407471 
	C370.765839,838.260254 409.790222,817.787903 443.540405,787.282410 
	C445.801300,785.238892 449.756592,784.214050 452.922058,784.217773 
	C458.354309,784.224060 463.817749,785.229919 469.206757,786.168457 
	C473.873749,786.981140 478.455627,788.282593 483.230621,790.192322 
	C481.549072,809.383667 479.053925,828.546143 478.370514,847.772949 
	C477.255157,879.150208 478.815613,910.446350 484.033539,941.527344 
	C490.136108,977.877563 499.622345,1013.248779 513.067566,1047.559570 
	C524.568237,1076.908081 538.877502,1104.861572 554.180542,1131.889526 
	C551.861755,1131.701904 549.535339,1131.580811 547.225464,1131.315552 
	C535.006531,1129.911377 522.795532,1128.437988 510.574738,1127.051270 
	C494.066895,1125.178101 477.552948,1123.359009 461.041046,1121.521973 
	C444.530426,1119.684814 428.022552,1117.822266 411.507019,1116.030518 
	C397.471008,1114.507812 383.415070,1113.164551 369.387604,1111.568970 
	C354.033417,1109.822632 338.708588,1107.819580 323.358276,1106.037598 
	C309.503357,1104.429321 295.630768,1102.973755 281.767059,1101.440674 
	C265.595612,1099.652466 249.424332,1097.862793 233.254913,1096.056274 
	C222.357849,1094.838745 211.463394,1093.597900 200.569107,1092.355713 
	C188.034622,1090.926636 175.502548,1089.476074 162.967712,1088.050293 
	C146.629761,1086.191895 130.199707,1084.921997 113.972458,1082.363770 
	C89.803024,1078.553345 66.568924,1097.121094 67.025330,1121.450073 
	C67.508911,1147.228882 68.888542,1172.990967 69.887039,1198.759888 
	C70.872620,1224.194946 71.862938,1249.629883 72.866013,1275.064209 
	C73.856010,1300.166870 74.886055,1325.267944 75.857979,1350.371216 
	C76.591705,1369.322144 77.216858,1388.277466 77.971161,1407.227417 
	C78.890846,1430.332153 79.938377,1453.431763 80.851685,1476.536743 
	C81.929390,1503.800781 82.940002,1531.067505 83.946617,1558.334351 
	C84.646210,1577.285034 85.284584,1596.238281 85.960213,1615.189941 
	C86.647888,1634.479980 87.357384,1653.769287 88.039581,1673.059570 
	C88.782761,1694.074219 102.491875,1709.927124 123.020187,1713.003052 
	C132.860977,1714.477783 142.802582,1715.269409 152.686920,1716.466187 
	C170.663589,1718.642822 188.627136,1720.927734 206.604492,1723.098389 
	C224.086533,1725.209351 241.590210,1727.143921 259.063660,1729.322266 
	C276.042694,1731.439087 292.977753,1733.912842 309.964020,1735.965820 
	C331.237335,1738.536987 352.556519,1740.728149 373.830841,1743.291138 
	C391.147644,1745.377319 408.415802,1747.865479 425.726868,1750.002197 
	C448.314423,1752.790405 470.921265,1755.422974 493.523193,1758.093750 
	C511.504639,1760.218628 529.502014,1762.212158 547.472900,1764.422241 
	C572.704163,1767.524902 597.911804,1770.819946 623.140381,1773.944702 
	C640.776428,1776.129028 658.434814,1778.131836 676.075867,1780.276489 
	C696.853882,1782.802612 717.620056,1785.425903 738.398560,1787.948120 
	C756.374268,1790.130005 774.364746,1792.190308 792.340027,1794.375732 
	C812.789917,1796.862061 833.229065,1799.437378 853.675110,1801.955200 
	C871.480896,1804.147705 889.290405,1806.310059 907.097351,1808.492676 
	C924.563599,1810.633667 942.026611,1812.801147 959.494995,1814.924561 
	C977.633606,1817.129272 995.749939,1819.565063 1013.927124,1821.390747 
	C1027.916382,1822.795532 1041.810181,1826.510742 1056.798828,1823.797119 
	C1062.394531,1821.352783 1068.384888,1819.543457 1073.518066,1816.354370 
	C1096.250122,1802.231201 1118.757446,1787.744873 1141.302490,1773.322144 
	C1153.339233,1765.621948 1165.287598,1757.783569 1177.950195,1750.149048 
z"/>
<path fill="#EA552F" opacity="1.000000" stroke="none" 
	d="
M1914.927856,844.006042 
	C1916.090210,873.200195 1914.695190,902.319702 1910.698853,931.214172 
	C1903.611450,982.458374 1888.917236,1031.539551 1866.851685,1078.372314 
	C1842.312378,1130.455078 1810.278198,1177.479980 1771.593872,1220.073975 
	C1735.678833,1259.618896 1695.358032,1294.010742 1651.172607,1323.944946 
	C1650.078613,1324.686279 1648.993896,1325.441162 1648.307129,1325.913330 
	C1657.551636,1333.736328 1667.218872,1341.042847 1675.860840,1349.408569 
	C1695.091553,1368.024536 1708.779785,1390.085815 1713.314941,1416.838135 
	C1717.173950,1439.602417 1715.538818,1462.256104 1709.938965,1484.660278 
	C1698.424194,1530.729614 1675.643188,1571.093506 1647.131958,1608.498413 
	C1606.927490,1661.244141 1557.612793,1703.284912 1498.505493,1733.562134 
	C1465.239990,1750.602173 1430.263794,1762.737549 1393.068970,1767.455200 
	C1379.421387,1769.186035 1365.525513,1770.202393 1351.802246,1769.749023 
	C1337.616699,1769.280640 1323.487549,1766.746826 1309.368896,1764.854736 
	C1305.815918,1764.378540 1302.397095,1762.902222 1298.744263,1761.595947 
	C1300.741699,1760.478882 1302.857178,1759.445435 1305.089966,1758.856812 
	C1321.698853,1754.478394 1331.531250,1742.938232 1336.451904,1727.391479 
	C1348.647217,1688.860229 1350.539185,1649.828003 1341.518433,1610.193115 
	C1332.961304,1572.595581 1315.353394,1539.919312 1290.193115,1511.037842 
	C1281.364502,1500.903564 1271.302124,1492.463989 1257.500000,1490.538452 
	C1250.452148,1489.555176 1243.218262,1489.905762 1236.265869,1489.415161 
	C1240.542358,1486.664551 1244.482422,1483.881714 1248.731323,1481.699951 
	C1256.080811,1477.925537 1263.621826,1474.523804 1271.457397,1470.940186 
	C1276.231934,1469.550537 1280.667847,1468.290894 1285.019531,1466.787720 
	C1288.138916,1465.710083 1291.145630,1464.306030 1294.527344,1463.207642 
	C1295.977905,1463.393311 1297.116699,1463.542480 1298.227539,1463.425659 
	C1308.782349,1462.314819 1319.327271,1460.307983 1329.885376,1460.243286 
	C1341.617065,1460.171387 1353.369995,1461.744873 1365.091064,1462.844116 
	C1368.970581,1463.208008 1372.003418,1462.786865 1373.680542,1458.776978 
	C1374.180664,1457.580811 1375.183838,1456.599854 1375.923462,1455.498047 
	C1379.850220,1449.646973 1383.766724,1443.788818 1388.097412,1437.319458 
	C1385.748657,1437.319458 1384.257202,1437.083374 1382.864990,1437.355469 
	C1366.631958,1440.528809 1350.461548,1444.049316 1334.177124,1446.925903 
	C1320.299805,1449.377563 1306.295776,1451.112061 1292.240967,1452.826172 
	C1288.382935,1438.719849 1281.197144,1427.015869 1271.151367,1416.888306 
	C1272.931274,1416.046387 1274.426514,1415.310303 1276.006836,1414.975586 
	C1283.158813,1413.460693 1290.386963,1412.275635 1297.490479,1410.567993 
	C1308.775024,1407.855103 1320.038086,1405.018433 1331.207520,1401.869751 
	C1343.515625,1398.400024 1355.855591,1394.940430 1367.912354,1390.708374 
	C1382.292725,1385.660889 1396.497070,1380.062500 1410.573975,1374.212646 
	C1424.218750,1368.542603 1437.886719,1362.805176 1451.049805,1356.122681 
	C1483.400757,1339.699463 1514.943237,1321.754761 1543.619751,1299.411621 
	C1563.128784,1284.211060 1582.396851,1268.538574 1600.398682,1251.615479 
	C1615.858276,1237.081909 1630.097900,1221.070679 1643.536133,1204.617676 
	C1656.744141,1188.446533 1669.238037,1171.501831 1680.250488,1153.781250 
	C1691.268433,1136.052124 1700.987549,1117.358765 1709.574951,1098.320801 
	C1718.159424,1079.288940 1725.639160,1059.613159 1731.738159,1039.649902 
	C1737.105469,1022.081604 1740.903442,1003.872864 1743.553711,985.678833 
	C1746.466309,965.683838 1747.606445,945.402710 1748.849487,925.205078 
	C1749.408325,916.124695 1748.815063,906.897095 1747.913208,897.818848 
	C1746.011841,878.677734 1744.321167,859.461853 1741.095337,840.523376 
	C1738.565918,825.674316 1734.025513,811.151001 1730.079590,796.563843 
	C1723.979126,774.011536 1715.012817,752.540100 1704.782959,731.586548 
	C1692.345947,706.111633 1678.227173,681.596802 1660.941528,659.096497 
	C1648.907715,643.432373 1636.726562,627.783325 1623.414062,613.222046 
	C1601.950806,589.745728 1578.476074,568.269836 1553.198730,548.898010 
	C1529.953735,531.083740 1505.502075,515.000488 1480.004272,500.614929 
	C1455.377441,486.720825 1429.806641,474.724396 1403.540649,464.187592 
	C1377.109497,453.584503 1350.226685,444.382568 1322.613770,437.429901 
	C1306.345947,433.333801 1290.076294,428.984375 1273.564209,426.182312 
	C1251.005981,422.354218 1228.266113,419.422119 1205.509888,416.988373 
	C1186.875610,414.995422 1168.092285,413.114594 1149.395020,413.292206 
	C1120.677124,413.565002 1091.932617,415.053375 1063.283447,417.165436 
	C1043.793091,418.602264 1024.258179,421.018585 1005.082275,424.743073 
	C980.490967,429.519348 956.029053,435.295410 931.907043,442.052856 
	C911.455505,447.782043 891.183716,454.581085 871.525574,462.604919 
	C847.397583,472.453094 823.534363,483.188538 800.413147,495.190369 
	C781.276794,505.123688 763.043213,516.936951 745.023254,528.845764 
	C720.445190,545.088684 697.617126,563.728516 675.991211,583.707092 
	C653.717651,604.284058 633.442017,626.802002 615.137207,650.990051 
	C607.026550,661.707520 599.676636,673.012451 592.212097,684.204651 
	C579.542969,703.200256 568.942200,723.329285 559.727051,744.213501 
	C556.325073,751.923401 552.523254,759.456909 548.625671,766.888062 
	C534.245789,748.990601 520.234741,731.202393 505.964355,713.624573 
	C503.182465,710.197937 502.791168,707.494690 504.685791,703.465149 
	C513.606079,684.493286 519.626221,664.479065 523.416870,643.950989 
	C529.694336,609.956177 528.627747,575.964478 521.375244,542.138428 
	C514.123352,508.314819 500.565887,477.217743 480.040070,449.474548 
	C470.081055,436.013702 458.315033,423.889801 447.367065,411.160645 
	C452.984192,400.219299 458.137177,389.008789 464.299286,378.383514 
	C490.105896,333.885071 525.592102,298.958466 570.024292,273.149231 
	C600.606934,255.384750 633.558838,244.302429 668.532654,239.251816 
	C673.766479,238.496002 679.092896,238.126572 684.382446,238.061295 
	C698.297668,237.889511 712.276123,237.158478 726.119324,238.164322 
	C747.260986,239.700439 767.796082,244.688812 787.609253,252.401962 
	C815.594543,263.296387 840.610046,278.837982 861.805115,300.213257 
	C864.906067,303.340607 867.071289,303.836700 871.042908,301.533813 
	C909.725403,279.104675 951.075989,263.238678 994.157654,251.513016 
	C1024.366333,243.291046 1054.923462,237.048523 1085.938843,232.879318 
	C1115.813354,228.863480 1145.769165,225.849869 1175.935669,225.899796 
	C1199.063965,225.938080 1222.265991,225.492874 1245.300415,227.143814 
	C1274.246338,229.218430 1303.270386,231.909485 1331.878418,236.644333 
	C1394.405273,246.993011 1454.658447,265.004639 1510.868896,295.041687 
	C1515.126709,297.316895 1519.425903,299.557648 1523.464722,302.185059 
	C1526.250977,303.997559 1527.981323,303.608002 1530.263916,301.290314 
	C1549.433594,281.825073 1571.720947,266.817566 1596.783325,256.071350 
	C1623.168213,244.758026 1650.575073,237.754913 1679.528198,237.949814 
	C1690.445557,238.023300 1701.412720,237.286407 1712.272339,238.080673 
	C1738.643433,240.009460 1764.067017,246.410172 1788.576050,256.303253 
	C1825.548706,271.227325 1857.946289,293.085541 1885.743164,321.607361 
	C1919.248413,355.986206 1943.099243,396.053558 1956.263550,442.407440 
	C1964.303101,470.716003 1967.832764,499.577850 1965.722778,528.801453 
	C1961.952271,581.023254 1943.778076,627.577698 1907.942017,666.464478 
	C1901.526733,673.425720 1894.475586,679.828857 1887.420898,686.158447 
	C1884.809204,688.501648 1884.064697,690.316040 1885.325928,693.743164 
	C1894.533569,718.759155 1902.153198,744.305115 1906.228638,770.640686 
	C1909.832520,793.929565 1911.820190,817.468567 1914.468750,841.616211 
	C1914.586670,842.892212 1914.757202,843.449097 1914.927856,844.006042 
z"/>
<path fill="#A09796" opacity="1.000000" stroke="none" 
	d="
M1056.047852,1823.852173 
	C1041.810181,1826.510742 1027.916382,1822.795532 1013.927124,1821.390747 
	C995.749939,1819.565063 977.633606,1817.129272 959.494995,1814.924561 
	C942.026611,1812.801147 924.563599,1810.633667 907.097351,1808.492676 
	C889.290405,1806.310059 871.480896,1804.147705 853.675110,1801.955200 
	C833.229065,1799.437378 812.789917,1796.862061 792.340027,1794.375732 
	C774.364746,1792.190308 756.374268,1790.130005 738.398560,1787.948120 
	C717.620056,1785.425903 696.853882,1782.802612 676.075867,1780.276489 
	C658.434814,1778.131836 640.776428,1776.129028 623.140381,1773.944702 
	C597.911804,1770.819946 572.704163,1767.524902 547.472900,1764.422241 
	C529.502014,1762.212158 511.504639,1760.218628 493.523193,1758.093750 
	C470.921265,1755.422974 448.314423,1752.790405 425.726868,1750.002197 
	C408.415802,1747.865479 391.147644,1745.377319 373.830841,1743.291138 
	C352.556519,1740.728149 331.237335,1738.536987 309.964020,1735.965820 
	C292.977753,1733.912842 276.042694,1731.439087 259.063660,1729.322266 
	C241.590210,1727.143921 224.086533,1725.209351 206.604492,1723.098389 
	C188.627136,1720.927734 170.663589,1718.642822 152.686920,1716.466187 
	C142.802582,1715.269409 132.860977,1714.477783 123.020187,1713.003052 
	C102.491875,1709.927124 88.782761,1694.074219 88.039581,1673.059570 
	C87.357384,1653.769287 86.647888,1634.479980 85.960213,1615.189941 
	C85.284584,1596.238281 84.646210,1577.285034 83.946617,1558.334351 
	C82.940002,1531.067505 81.929390,1503.800781 80.851685,1476.536743 
	C79.938377,1453.431763 78.890846,1430.332153 77.971161,1407.227417 
	C77.216858,1388.277466 76.591705,1369.322144 75.857979,1350.371216 
	C74.886055,1325.267944 73.856010,1300.166870 72.866013,1275.064209 
	C71.862938,1249.629883 70.872620,1224.194946 69.887039,1198.759888 
	C68.888542,1172.990967 67.508911,1147.228882 67.025330,1121.450073 
	C66.568924,1097.121094 89.803024,1078.553345 113.972458,1082.363770 
	C130.199707,1084.921997 146.629761,1086.191895 162.967712,1088.050293 
	C175.502548,1089.476074 188.034622,1090.926636 200.569107,1092.355713 
	C211.463394,1093.597900 222.357849,1094.838745 233.254913,1096.056274 
	C249.424332,1097.862793 265.595612,1099.652466 281.767059,1101.440674 
	C295.630768,1102.973755 309.503357,1104.429321 323.358276,1106.037598 
	C338.708588,1107.819580 354.033417,1109.822632 369.387604,1111.568970 
	C383.415070,1113.164551 397.471008,1114.507812 411.507019,1116.030518 
	C428.022552,1117.822266 444.530426,1119.684814 461.041046,1121.521973 
	C477.552948,1123.359009 494.066895,1125.178101 510.574738,1127.051270 
	C522.795532,1128.437988 535.006531,1129.911377 547.225464,1131.315552 
	C549.535339,1131.580811 551.861755,1131.701904 555.000244,1132.041992 
	C563.214661,1132.916016 570.609375,1133.637573 578.343323,1134.535400 
	C584.101379,1135.308105 589.519348,1135.912231 594.939209,1136.498901 
	C613.308044,1138.487549 631.677612,1140.469971 650.437012,1142.608032 
	C653.258728,1143.042236 655.690186,1143.323242 658.557129,1143.691895 
	C664.990173,1144.374390 670.987732,1144.969238 677.409363,1145.654785 
	C687.547974,1146.855347 697.263306,1147.957642 706.976807,1149.077026 
	C723.282898,1150.955688 739.587769,1152.846436 755.893372,1154.729736 
	C770.729614,1156.443359 785.560791,1158.203247 800.404175,1159.852173 
	C815.563660,1161.536255 830.733521,1163.126221 845.902039,1164.727905 
	C859.584106,1166.172852 873.270325,1167.577759 887.367554,1169.060425 
	C889.585144,1169.419067 891.380432,1169.803345 893.196045,1170.002930 
	C912.357910,1172.110474 931.529297,1174.132935 950.685791,1176.288208 
	C976.118958,1179.149536 1001.520386,1182.308228 1026.975464,1184.954712 
	C1043.885254,1186.712769 1059.221436,1198.885742 1061.977539,1215.708008 
	C1064.141479,1228.916016 1064.354126,1242.486572 1064.838989,1255.917725 
	C1065.823608,1283.199951 1066.364258,1310.497803 1067.176025,1337.786743 
	C1067.467773,1347.596069 1068.012817,1357.397827 1068.373291,1367.605591 
	C1068.527710,1370.341431 1068.751099,1372.674805 1068.950439,1375.468018 
	C1069.031860,1379.870361 1069.137329,1383.812744 1069.164795,1388.242188 
	C1069.066162,1391.551392 1068.908325,1394.381104 1069.055908,1397.194702 
	C1069.312744,1402.088623 1069.757935,1406.972778 1070.086670,1412.323730 
	C1070.383789,1416.331787 1070.718628,1419.876831 1070.989990,1423.860596 
	C1071.623047,1452.380371 1072.310425,1480.461670 1073.057495,1508.541382 
	C1073.081421,1509.436890 1073.717529,1510.316284 1074.118530,1511.648193 
	C1074.119263,1514.508545 1074.069824,1516.923950 1073.998291,1519.767212 
	C1073.996094,1523.409180 1074.015747,1526.623291 1074.030640,1530.312988 
	C1074.341919,1536.418945 1074.760742,1542.045532 1074.955444,1547.679810 
	C1075.667236,1568.259399 1076.248657,1588.843506 1076.987305,1609.422119 
	C1077.559082,1625.345337 1078.372803,1641.260010 1078.934326,1657.183594 
	C1079.689209,1678.593628 1080.377563,1700.006714 1080.957397,1721.422119 
	C1081.425293,1738.699585 1081.688965,1755.982422 1082.047119,1773.262939 
	C1082.060913,1773.927734 1082.032349,1774.607666 1082.158569,1775.254028 
	C1085.911255,1794.490234 1076.824097,1813.282593 1058.329590,1821.476685 
	C1057.400513,1821.888428 1056.800781,1823.043335 1056.047852,1823.852173 
M593.094910,1488.525391 
	C596.568542,1482.009644 597.454041,1474.960327 597.056763,1467.743286 
	C596.867188,1464.298584 597.777710,1462.196289 600.833923,1460.042236 
	C613.510254,1451.107056 615.720764,1433.605225 606.868225,1421.519897 
	C597.729553,1409.043945 575.828125,1409.252075 567.410828,1417.701050 
	C566.163757,1418.952881 563.149109,1419.601074 561.436157,1419.042969 
	C550.557007,1415.499146 539.634094,1415.253540 528.455627,1417.172241 
	C526.596985,1417.491455 523.877197,1416.574829 522.487671,1415.250854 
	C510.755890,1404.072754 493.576660,1403.694092 483.126892,1414.635254 
	C472.319458,1425.950684 473.062317,1442.610596 484.624634,1454.024048 
	C485.999451,1455.380981 487.014313,1458.106445 486.732483,1459.976929 
	C484.724976,1473.300781 488.337250,1485.098999 496.217010,1495.616943 
	C520.263977,1527.714355 573.367676,1525.455933 593.094910,1488.525391 
z"/>
<path fill="#F7E2DC" opacity="1.000000" stroke="none" 
	d="
M447.086151,411.035736 
	C458.315033,423.889801 470.081055,436.013702 480.040070,449.474548 
	C500.565887,477.217743 514.123352,508.314819 521.375244,542.138428 
	C528.627747,575.964478 529.694336,609.956177 523.416870,643.950989 
	C519.626221,664.479065 513.606079,684.493286 504.685791,703.465149 
	C502.791168,707.494690 503.182465,710.197937 505.964355,713.624573 
	C520.234741,731.202393 534.245789,748.990601 548.755127,767.198853 
	C552.861023,772.384338 556.718018,776.961792 560.207642,781.804016 
	C563.017700,785.703430 562.862244,789.984924 560.096313,793.894287 
	C557.381104,797.731995 553.638123,799.355530 548.838013,798.410461 
	C545.593445,797.771667 542.285339,797.455505 538.620422,796.852661 
	C522.738220,794.480591 507.245331,792.221863 491.740540,790.047607 
	C488.876617,789.645935 485.964844,789.585815 483.075134,789.368042 
	C478.455627,788.282593 473.873749,786.981140 469.206757,786.168457 
	C463.817749,785.229919 458.354309,784.224060 452.922058,784.217773 
	C449.756592,784.214050 445.801300,785.238892 443.540405,787.282410 
	C409.790222,817.787903 370.765839,838.260254 326.311340,847.407471 
	C308.023529,851.170471 289.091522,853.577271 270.461090,853.525513 
	C233.336884,853.422485 197.645645,845.385681 163.725693,829.543274 
	C131.359222,814.426392 103.454185,793.443604 79.865288,766.959778 
	C59.572235,744.176270 44.044987,718.225098 32.982552,689.632263 
	C19.490654,654.760010 13.986194,618.575012 16.282124,581.473999 
	C18.322014,548.510437 26.515419,516.827209 41.031555,486.948425 
	C54.478630,459.270111 72.030190,434.529877 94.329659,413.332977 
	C117.458488,391.347778 143.608795,373.961365 173.196121,361.570740 
	C195.510727,352.225800 218.596420,345.892731 242.468048,343.506744 
	C259.249359,341.829498 276.343964,342.356781 293.250031,343.063354 
	C322.709564,344.294617 350.632874,352.539948 377.395813,364.475372 
	C398.923615,374.076050 418.765167,386.588593 436.630371,402.085724 
	C440.021790,405.027649 443.413574,407.969147 447.086151,411.035736 
M227.331741,543.265564 
	C228.393997,547.916016 229.516022,552.553833 230.508331,557.219116 
	C235.286041,579.681580 239.991394,602.159485 244.798935,624.615479 
	C247.388885,636.713135 250.126343,648.779358 252.809631,660.856995 
	C254.190643,667.072937 258.031677,671.569763 263.117279,675.049194 
	C279.766174,686.440186 301.106018,676.800293 302.962646,656.773926 
	C303.477234,651.223328 302.648102,645.395508 301.535797,639.876221 
	C298.586273,625.240479 295.064209,610.721252 291.925812,596.122192 
	C289.500122,584.838257 287.418488,573.480347 284.992676,562.196411 
	C280.080963,539.349243 274.870026,516.565063 270.120453,493.684753 
	C267.610992,481.595886 254.618774,471.542755 242.696518,473.179169 
	C225.982269,475.473297 215.933594,489.815552 219.455292,506.401215 
	C222.006424,518.416016 224.605972,530.420593 227.331741,543.265564 
M307.836792,695.621460 
	C297.593262,688.322205 285.102112,688.000366 275.795776,694.795959 
	C266.221954,701.786987 262.436798,713.249207 265.988129,724.677368 
	C270.041504,737.721069 284.557770,746.391663 297.852203,742.209351 
	C319.236938,735.481812 324.674530,711.616699 307.836792,695.621460 
z"/>
<path fill="#F7C46C" opacity="1.000000" stroke="none" 
	d="
M1236.068481,1489.653564 
	C1243.218262,1489.905762 1250.452148,1489.555176 1257.500000,1490.538452 
	C1271.302124,1492.463989 1281.364502,1500.903564 1290.193115,1511.037842 
	C1315.353394,1539.919312 1332.961304,1572.595581 1341.518433,1610.193115 
	C1350.539185,1649.828003 1348.647217,1688.860229 1336.451904,1727.391479 
	C1331.531250,1742.938232 1321.698853,1754.478394 1305.089966,1758.856812 
	C1302.857178,1759.445435 1300.741699,1760.478882 1298.345459,1761.557373 
	C1288.649292,1763.312378 1279.227051,1765.342163 1269.699219,1766.202515 
	C1253.676514,1767.649292 1237.713623,1767.655640 1221.680664,1764.642944 
	C1206.351318,1761.762451 1191.927612,1756.787476 1177.373047,1749.811157 
	C1147.665161,1733.896362 1126.501587,1710.867310 1113.332642,1680.670898 
	C1098.568848,1646.817871 1095.902588,1612.306030 1109.035767,1577.223999 
	C1114.841187,1561.716431 1124.112183,1548.381104 1135.270752,1535.888672 
	C1141.056274,1530.504150 1146.552368,1525.289917 1152.354126,1519.901978 
	C1165.181641,1512.802124 1177.703491,1505.875977 1190.597290,1498.916870 
	C1201.734863,1496.231323 1212.500366,1493.578491 1223.674316,1490.898560 
	C1228.077881,1490.465332 1232.073242,1490.059448 1236.068481,1489.653564 
z"/>
<path fill="#EA5630" opacity="1.000000" stroke="none" 
	d="
M483.152893,789.780151 
	C485.964844,789.585815 488.876617,789.645935 491.740540,790.047607 
	C507.245331,792.221863 522.738220,794.480591 538.618896,797.272217 
	C536.937012,806.524353 534.956543,815.235840 532.790588,823.901001 
	C525.347290,853.678833 522.210876,884.067627 521.266113,914.601929 
	C520.790955,929.955811 522.645264,945.414795 523.970032,960.781128 
	C525.065979,973.494019 526.148315,986.295349 528.617004,998.784607 
	C533.866272,1025.341187 540.548889,1051.582886 551.363953,1076.526733 
	C558.093323,1092.047363 565.314148,1107.355347 572.359741,1122.738037 
	C574.152527,1126.652344 576.117981,1130.487427 578.004089,1134.359009 
	C570.609375,1133.637573 563.214661,1132.916016 555.444214,1132.035156 
	C538.877502,1104.861572 524.568237,1076.908081 513.067566,1047.559570 
	C499.622345,1013.248779 490.136108,977.877563 484.033539,941.527344 
	C478.815613,910.446350 477.255157,879.150208 478.370514,847.772949 
	C479.053925,828.546143 481.549072,809.383667 483.152893,789.780151 
z"/>
<path fill="#847D7E" opacity="1.000000" stroke="none" 
	d="
M1134.981079,1536.058716 
	C1124.112183,1548.381104 1114.841187,1561.716431 1109.035767,1577.223999 
	C1095.902588,1612.306030 1098.568848,1646.817871 1113.332642,1680.670898 
	C1126.501587,1710.867310 1147.665161,1733.896362 1177.035767,1749.740356 
	C1165.287598,1757.783569 1153.339233,1765.621948 1141.302490,1773.322144 
	C1118.757446,1787.744873 1096.250122,1802.231201 1073.518066,1816.354370 
	C1068.384888,1819.543457 1062.394531,1821.352783 1056.423340,1823.824707 
	C1056.800781,1823.043335 1057.400513,1821.888428 1058.329590,1821.476685 
	C1076.824097,1813.282593 1085.911255,1794.490234 1082.158569,1775.254028 
	C1082.032349,1774.607666 1082.060913,1773.927734 1082.047119,1773.262939 
	C1081.688965,1755.982422 1081.425293,1738.699585 1080.957397,1721.422119 
	C1080.377563,1700.006714 1079.689209,1678.593628 1078.934326,1657.183594 
	C1078.372803,1641.260010 1077.559082,1625.345337 1076.987305,1609.422119 
	C1076.248657,1588.843506 1075.667236,1568.259399 1074.955444,1547.679810 
	C1074.760742,1542.045532 1074.341919,1536.418945 1074.473877,1530.353027 
	C1081.324097,1530.525391 1087.723267,1531.166138 1094.128784,1531.734497 
	C1105.125488,1532.710449 1116.126099,1533.641235 1127.520142,1534.669434 
	C1130.270508,1535.184814 1132.625732,1535.621826 1134.981079,1536.058716 
z"/>
<path fill="#EF9271" opacity="1.000000" stroke="none" 
	d="
M1915.101562,843.850769 
	C1914.757202,843.449097 1914.586670,842.892212 1914.560547,842.060913 
	C1914.895020,842.422852 1915.085205,843.059204 1915.101562,843.850769 
z"/>
<path fill="#EA654B" opacity="1.000000" stroke="none" 
	d="
M578.343323,1134.535400 
	C576.117981,1130.487427 574.152527,1126.652344 572.359741,1122.738037 
	C565.314148,1107.355347 558.093323,1092.047363 551.363953,1076.526733 
	C540.548889,1051.582886 533.866272,1025.341187 528.617004,998.784607 
	C526.148315,986.295349 525.065979,973.494019 523.970032,960.781128 
	C522.645264,945.414795 520.790955,929.955811 521.266113,914.601929 
	C522.210876,884.067627 525.347290,853.678833 532.790588,823.901001 
	C534.956543,815.235840 536.937012,806.524353 539.004089,797.414551 
	C542.285339,797.455505 545.593445,797.771667 548.838013,798.410461 
	C553.638123,799.355530 557.381104,797.731995 560.096313,793.894287 
	C562.862244,789.984924 563.017700,785.703430 560.207642,781.804016 
	C556.718018,776.961792 552.861023,772.384338 549.033264,767.381714 
	C552.523254,759.456909 556.325073,751.923401 559.727051,744.213501 
	C568.942200,723.329285 579.542969,703.200256 592.212097,684.204651 
	C599.676636,673.012451 607.026550,661.707520 615.137207,650.990051 
	C633.442017,626.802002 653.717651,604.284058 675.991211,583.707092 
	C697.617126,563.728516 720.445190,545.088684 745.023254,528.845764 
	C763.043213,516.936951 781.276794,505.123688 800.413147,495.190369 
	C823.534363,483.188538 847.397583,472.453094 871.525574,462.604919 
	C891.183716,454.581085 911.455505,447.782043 931.907043,442.052856 
	C956.029053,435.295410 980.490967,429.519348 1005.082275,424.743073 
	C1024.258179,421.018585 1043.793091,418.602264 1063.283447,417.165436 
	C1091.932617,415.053375 1120.677124,413.565002 1149.395020,413.292206 
	C1168.092285,413.114594 1186.875610,414.995422 1205.509888,416.988373 
	C1228.266113,419.422119 1251.005981,422.354218 1273.564209,426.182312 
	C1290.076294,428.984375 1306.345947,433.333801 1322.613770,437.429901 
	C1350.226685,444.382568 1377.109497,453.584503 1403.540649,464.187592 
	C1429.806641,474.724396 1455.377441,486.720825 1480.004272,500.614929 
	C1505.502075,515.000488 1529.953735,531.083740 1553.198730,548.898010 
	C1578.476074,568.269836 1601.950806,589.745728 1623.414062,613.222046 
	C1636.726562,627.783325 1648.907715,643.432373 1660.941528,659.096497 
	C1678.227173,681.596802 1692.345947,706.111633 1704.782959,731.586548 
	C1715.012817,752.540100 1723.979126,774.011536 1730.079590,796.563843 
	C1734.025513,811.151001 1738.565918,825.674316 1741.095337,840.523376 
	C1744.321167,859.461853 1746.011841,878.677734 1747.913208,897.818848 
	C1748.815063,906.897095 1749.408325,916.124695 1748.849487,925.205078 
	C1747.606445,945.402710 1746.466309,965.683838 1743.553711,985.678833 
	C1740.903442,1003.872864 1737.105469,1022.081604 1731.738159,1039.649902 
	C1725.639160,1059.613159 1718.159424,1079.288940 1709.574951,1098.320801 
	C1700.987549,1117.358765 1691.268433,1136.052124 1680.250488,1153.781250 
	C1669.238037,1171.501831 1656.744141,1188.446533 1643.536133,1204.617676 
	C1630.097900,1221.070679 1615.858276,1237.081909 1600.398682,1251.615479 
	C1582.396851,1268.538574 1563.128784,1284.211060 1543.619751,1299.411621 
	C1514.943237,1321.754761 1483.400757,1339.699463 1451.049805,1356.122681 
	C1437.886719,1362.805176 1424.218750,1368.542603 1410.573975,1374.212646 
	C1396.497070,1380.062500 1382.292725,1385.660889 1367.912354,1390.708374 
	C1355.855591,1394.940430 1343.515625,1398.400024 1331.207520,1401.869751 
	C1320.038086,1405.018433 1308.775024,1407.855103 1297.490479,1410.567993 
	C1290.386963,1412.275635 1283.158813,1413.460693 1276.006836,1414.975586 
	C1274.426514,1415.310303 1272.931274,1416.046387 1270.833008,1416.772827 
	C1268.209961,1415.263672 1266.262207,1413.416138 1264.073853,1411.920288 
	C1243.881104,1398.119507 1221.393921,1391.575928 1196.911133,1390.645020 
	C1196.038818,1390.200073 1195.327393,1390.023804 1194.184448,1389.744629 
	C1180.058716,1390.094849 1166.363525,1390.523926 1152.670410,1391.006592 
	C1137.671631,1391.535156 1123.411377,1395.491699 1109.261597,1400.147949 
	C1107.049683,1400.875854 1104.097168,1400.432251 1101.798462,1399.633789 
	C1090.887451,1395.844482 1080.084473,1391.744507 1069.242920,1387.755249 
	C1069.137329,1383.812744 1069.031860,1379.870361 1069.367188,1375.488647 
	C1074.230957,1375.688232 1078.638062,1376.716431 1083.079834,1376.899292 
	C1103.125122,1377.724976 1123.176636,1378.479858 1143.233521,1378.901001 
	C1151.337646,1379.071289 1159.462646,1378.357300 1167.575195,1377.983887 
	C1174.360474,1377.671631 1181.143311,1377.297485 1187.924072,1376.896973 
	C1192.384888,1376.633667 1196.854736,1376.400391 1201.288452,1375.879883 
	C1202.558105,1375.730835 1203.715942,1374.628296 1204.958008,1373.744873 
	C1204.990967,1373.526855 1205.058960,1373.091064 1205.523438,1373.076660 
	C1224.972534,1374.008545 1243.509888,1370.343872 1261.788086,1366.279053 
	C1286.751587,1360.727417 1311.519287,1354.145996 1336.103638,1347.076294 
	C1367.705811,1337.988525 1397.741333,1324.735107 1426.963379,1309.791626 
	C1456.060181,1294.911987 1483.649170,1277.535645 1509.683716,1257.702148 
	C1537.723755,1236.340698 1563.403931,1212.488892 1586.399658,1185.786499 
	C1607.653564,1161.106812 1626.150513,1134.497192 1641.514648,1105.745605 
	C1654.581787,1081.292725 1665.178345,1055.829468 1672.941650,1028.775391 
	C1674.063843,1024.892944 1675.342041,1021.455933 1676.083374,1017.906860 
	C1678.513428,1006.273560 1680.748169,994.599487 1683.221680,982.591919 
	C1684.543701,973.821045 1685.702026,965.399292 1686.891846,956.536011 
	C1687.275024,940.836121 1687.626831,925.577881 1688.021118,909.832947 
	C1688.354248,886.605469 1684.963623,864.261353 1680.419067,842.090210 
	C1672.817749,805.006714 1659.571411,769.957764 1641.857056,736.528931 
	C1623.658569,702.186340 1601.091187,670.944336 1574.703369,642.527954 
	C1542.238770,607.567749 1505.343750,577.946655 1464.649170,553.013550 
	C1423.284302,527.669800 1379.540405,507.427246 1333.157593,493.410614 
	C1307.748169,485.732025 1281.756470,479.822601 1255.794922,474.186646 
	C1239.936890,470.744080 1223.684692,468.901917 1207.522339,467.140961 
	C1192.843628,465.541687 1178.046875,465.024536 1162.925781,463.968689 
	C1156.343872,463.648468 1150.138306,463.389923 1143.604492,462.894714 
	C1137.874023,462.815521 1132.471924,462.972931 1126.599731,463.104126 
	C1110.408203,463.791107 1094.686890,464.504333 1078.699951,465.213013 
	C1077.962524,465.422821 1077.490479,465.637207 1076.557373,465.865540 
	C1067.036011,466.855103 1057.971558,467.794067 1048.916138,468.813202 
	C1022.323059,471.806183 996.141479,476.887543 970.422729,484.320526 
	C961.357422,486.940460 952.266724,489.472260 942.834717,492.043030 
	C941.652466,492.374359 940.823120,492.706970 939.997131,493.014526 
	C940.000488,492.989502 940.043152,493.016541 939.630127,493.017578 
	C932.477844,495.371399 925.738708,497.724121 919.005249,500.044037 
	C919.010925,500.011200 919.071533,500.039062 918.664062,500.029175 
	C916.164551,500.514435 913.938110,500.702789 912.000916,501.551422 
	C889.021362,511.617920 865.831116,521.251282 843.202881,532.059082 
	C815.979004,545.061829 790.661621,561.401001 766.472168,579.410583 
	C759.054810,584.932983 752.169739,591.170288 745.055908,597.049500 
	C745.070862,597.018799 745.093079,597.083374 744.745728,597.113281 
	C743.280273,598.457214 742.162170,599.771179 741.023987,601.053955 
	C741.003967,601.022705 741.073669,601.047974 740.705261,601.044128 
	C738.237061,603.053284 736.137329,605.066345 734.020996,607.048462 
	C734.004395,607.017639 734.070312,607.041443 733.701172,607.039978 
	C731.239014,609.110107 729.145935,611.181702 726.951172,613.428345 
	C726.668884,613.816528 726.443665,613.959351 725.862671,614.063232 
	C725.042603,614.419739 724.533813,614.744751 724.012329,615.040771 
	C723.999634,615.011780 724.058838,615.034241 723.851013,615.165344 
	C723.382996,615.505249 723.179749,615.759521 723.057251,616.042969 
	C723.081055,616.026611 723.093933,616.082947 722.746643,616.114868 
	C719.946777,618.833069 717.494202,621.519287 714.874268,624.477173 
	C712.844360,626.505432 710.981750,628.261902 708.815186,630.056274 
	C708.015991,630.420166 707.520691,630.746216 707.017456,631.040833 
	C707.009583,631.009399 707.072388,631.025391 706.842529,631.224854 
	C706.414673,631.990051 706.216736,632.555786 705.880127,633.382629 
	C704.872192,634.431396 704.002991,635.219055 702.904175,636.143799 
	C702.450623,636.554993 702.226746,636.829224 701.860962,637.362183 
	C700.858582,638.416870 699.998108,639.212891 698.910034,640.140930 
	C698.457642,640.538757 698.232788,640.804626 698.006226,641.036926 
	C698.004456,641.003357 698.071411,641.009094 697.857666,641.146790 
	C697.432312,641.546997 697.220825,641.809509 697.007141,642.038330 
	C697.004944,642.004700 697.072266,642.009399 696.858398,642.147278 
	C696.432739,642.547607 696.220947,642.809998 696.019043,643.040161 
	C696.029053,643.007812 696.087585,643.041626 695.734253,643.087769 
	C694.281738,644.550415 693.182556,645.966919 691.915771,647.650696 
	C689.878296,649.947876 688.008423,651.977722 685.902954,654.159790 
	C685.451599,654.614746 685.235779,654.917603 684.872559,655.510864 
	C667.542053,675.727722 651.573303,696.586670 638.124573,719.215271 
	C616.579224,755.467041 600.312988,794.028503 591.499329,835.307861 
	C587.148193,855.686462 585.274109,876.593994 582.239624,897.707520 
	C582.151428,911.895935 582.069885,925.639038 582.098938,939.381958 
	C582.102295,940.965942 582.721558,942.548523 583.047913,944.579163 
	C584.034424,953.260986 585.028198,961.495361 585.780518,970.029968 
	C588.363220,985.561951 591.187378,1000.793701 594.014221,1016.426270 
	C595.304565,1021.786621 596.217957,1026.881348 597.950073,1031.680420 
	C603.120361,1046.005859 608.117371,1060.427490 614.119995,1074.408936 
	C619.863342,1087.786377 626.499023,1100.807983 633.276855,1113.705200 
	C638.432922,1123.516479 644.426147,1132.887817 650.046875,1142.454834 
	C631.677612,1140.469971 613.308044,1138.487549 594.939209,1136.498901 
	C589.519348,1135.912231 584.101379,1135.308105 578.343323,1134.535400 
z"/>
<path fill="#FEFDFC" opacity="1.000000" stroke="none" 
	d="
M1197.072021,1390.913574 
	C1221.393921,1391.575928 1243.881104,1398.119507 1264.073853,1411.920288 
	C1266.262207,1413.416138 1268.209961,1415.263672 1270.587646,1417.063477 
	C1281.197144,1427.015869 1288.382935,1438.719849 1292.227173,1453.267456 
	C1292.947632,1457.046753 1293.575073,1460.047241 1294.202637,1463.047729 
	C1291.145630,1464.306030 1288.138916,1465.710083 1285.019531,1466.787720 
	C1280.667847,1468.290894 1276.231934,1469.550537 1271.455322,1470.488770 
	C1270.005371,1465.042358 1268.932129,1460.021484 1267.896729,1454.627441 
	C1262.101318,1435.973633 1248.165894,1426.697388 1230.737305,1420.755859 
	C1196.939209,1409.681030 1163.217529,1409.998169 1127.875366,1418.302856 
	C1132.585571,1422.571167 1136.229736,1425.873413 1140.029907,1429.469482 
	C1151.036133,1438.896240 1161.886353,1448.029419 1172.921021,1457.447754 
	C1188.729248,1470.454102 1205.209229,1481.881226 1223.265869,1490.925781 
	C1212.500366,1493.578491 1201.734863,1496.231323 1190.389404,1498.635498 
	C1172.273560,1485.397339 1154.737671,1472.407959 1137.324951,1459.509644 
	C1137.320068,1459.587280 1137.187256,1460.084961 1137.273682,1460.540894 
	C1140.870117,1479.543579 1144.432495,1498.553467 1148.242554,1517.513428 
	C1148.456665,1518.579224 1150.732300,1519.231079 1152.048340,1520.075562 
	C1146.552368,1525.289917 1141.056274,1530.504150 1135.270752,1535.888672 
	C1132.625732,1535.621826 1130.270508,1535.184814 1127.485229,1534.277588 
	C1126.132568,1528.509644 1125.209961,1523.212158 1124.181885,1517.488770 
	C1122.010986,1495.618530 1117.242188,1474.712036 1111.560303,1453.637939 
	C1111.062988,1451.963135 1110.413086,1450.678833 1110.017944,1449.320435 
	C1108.168579,1442.961792 1106.389648,1436.582642 1104.585571,1430.210938 
	C1104.234497,1430.203369 1103.883545,1430.195923 1103.532471,1430.188354 
	C1100.450073,1437.766113 1097.367798,1445.343750 1094.085938,1453.243164 
	C1089.971558,1464.482910 1085.961670,1475.368286 1082.172607,1486.329956 
	C1079.324219,1494.570190 1076.759277,1502.908447 1074.068115,1511.203125 
	C1073.717529,1510.316284 1073.081421,1509.436890 1073.057495,1508.541382 
	C1072.310425,1480.461670 1071.623047,1452.380371 1071.337402,1423.743164 
	C1074.840576,1420.892700 1077.932861,1418.598511 1081.759766,1415.759399 
	C1077.030884,1414.174927 1073.577515,1413.017944 1070.124146,1411.860962 
	C1069.757935,1406.972778 1069.312744,1402.088623 1069.055908,1397.194702 
	C1068.908325,1394.381104 1069.066162,1391.551392 1069.164795,1388.242188 
	C1080.084473,1391.744507 1090.887451,1395.844482 1101.798462,1399.633789 
	C1104.097168,1400.432251 1107.049683,1400.875854 1109.261597,1400.147949 
	C1123.411377,1395.491699 1137.671631,1391.535156 1152.670410,1391.006592 
	C1166.363525,1390.523926 1180.058716,1390.094849 1194.312134,1390.018799 
	C1195.604858,1390.568359 1196.338501,1390.740967 1197.072021,1390.913574 
z"/>
<path fill="#C8523A" opacity="1.000000" stroke="none" 
	d="
M1223.674316,1490.898560 
	C1205.209229,1481.881226 1188.729248,1470.454102 1173.361206,1457.415527 
	C1180.060547,1457.397095 1186.518311,1458.127441 1192.945435,1457.918823 
	C1217.921753,1457.107910 1242.888550,1455.998901 1267.858887,1455.000732 
	C1268.932129,1460.021484 1270.005371,1465.042358 1271.080566,1470.514404 
	C1263.621826,1474.523804 1256.080811,1477.925537 1248.731323,1481.699951 
	C1244.482422,1483.881714 1240.542358,1486.664551 1236.265869,1489.415283 
	C1232.073242,1490.059448 1228.077881,1490.465332 1223.674316,1490.898560 
z"/>
<path fill="#C85139" opacity="1.000000" stroke="none" 
	d="
M1294.527344,1463.207642 
	C1293.575073,1460.047241 1292.947632,1457.046753 1292.333984,1453.604980 
	C1306.295776,1451.112061 1320.299805,1449.377563 1334.177124,1446.925903 
	C1350.461548,1444.049316 1366.631958,1440.528809 1382.864990,1437.355469 
	C1384.257202,1437.083374 1385.748657,1437.319458 1388.097412,1437.319458 
	C1383.766724,1443.788818 1379.850220,1449.646973 1375.923462,1455.498047 
	C1375.183838,1456.599854 1374.180664,1457.580811 1373.680542,1458.776978 
	C1372.003418,1462.786865 1368.970581,1463.208008 1365.091064,1462.844116 
	C1353.369995,1461.744873 1341.617065,1460.171387 1329.885376,1460.243286 
	C1319.327271,1460.307983 1308.782349,1462.314819 1298.227539,1463.425659 
	C1297.116699,1463.542480 1295.977905,1463.393311 1294.527344,1463.207642 
z"/>
<path fill="#F7C46C" opacity="1.000000" stroke="none" 
	d="
M1672.851929,1029.169678 
	C1665.178345,1055.829468 1654.581787,1081.292725 1641.514648,1105.745605 
	C1626.150513,1134.497192 1607.653564,1161.106812 1586.399658,1185.786499 
	C1563.403931,1212.488892 1537.723755,1236.340698 1509.683716,1257.702148 
	C1483.649170,1277.535645 1456.060181,1294.911987 1426.963379,1309.791626 
	C1397.741333,1324.735107 1367.705811,1337.988525 1336.103638,1347.076294 
	C1311.519287,1354.145996 1286.751587,1360.727417 1261.788086,1366.279053 
	C1243.509888,1370.343872 1224.972534,1374.008545 1205.052368,1373.034546 
	C1198.737793,1373.248901 1193.358643,1373.490845 1187.512695,1373.748291 
	C1167.800415,1373.471680 1148.520264,1373.797729 1129.319092,1372.718872 
	C1108.987671,1371.576538 1088.731323,1369.098022 1068.442261,1367.203125 
	C1068.012817,1357.397827 1067.467773,1347.596069 1067.176025,1337.786743 
	C1066.364258,1310.497803 1065.823608,1283.199951 1064.838989,1255.917725 
	C1064.354126,1242.486572 1064.141479,1228.916016 1061.977539,1215.708008 
	C1059.221436,1198.885742 1043.885254,1186.712769 1026.975464,1184.954712 
	C1001.520386,1182.308228 976.118958,1179.149536 950.685791,1176.288208 
	C931.529297,1174.132935 912.357910,1172.110474 893.196045,1170.002930 
	C891.380432,1169.803345 889.585144,1169.419067 887.539795,1168.772095 
	C890.816528,1165.139160 894.601196,1162.094482 897.802368,1158.526367 
	C908.474182,1146.631592 918.255432,1134.148804 925.368774,1119.626831 
	C933.375610,1103.281006 938.199280,1086.038086 939.731018,1068.117920 
	C940.724304,1056.497681 939.307495,1044.671509 939.143127,1032.654541 
	C965.541382,1009.117310 980.627869,980.258484 983.012695,945.096619 
	C983.213013,942.144287 984.446899,941.028137 987.060059,940.578003 
	C993.723328,939.430298 1000.334473,937.887878 1007.035767,937.072693 
	C1020.025024,935.492737 1033.047852,934.145020 1046.082520,932.992249 
	C1063.098755,931.487427 1080.119507,929.571716 1097.174805,929.070618 
	C1129.439941,928.122498 1161.717041,928.421814 1193.870972,932.022095 
	C1202.584839,932.997742 1211.356567,933.502441 1220.043579,934.660339 
	C1231.843262,936.233032 1243.575928,938.301453 1255.361572,939.988953 
	C1258.570435,940.448364 1258.663940,942.546143 1259.019531,944.955139 
	C1260.175659,952.786804 1261.057617,960.695618 1262.845703,968.388733 
	C1265.565552,980.091797 1270.002319,991.187317 1276.901978,1001.447632 
	C1276.971313,1002.095032 1277.026733,1002.463318 1276.920166,1003.164673 
	C1275.242065,1007.369507 1273.184937,1011.121887 1272.301392,1015.132874 
	C1267.813110,1035.508789 1265.487671,1055.972900 1268.959839,1076.883423 
	C1272.387695,1097.526001 1279.528198,1116.580933 1290.746338,1134.198975 
	C1298.666504,1146.637573 1308.182617,1157.585083 1319.500732,1167.086060 
	C1334.616211,1179.774780 1351.536987,1189.192261 1370.308716,1194.943359 
	C1389.668335,1200.874634 1409.420288,1203.592773 1429.850098,1201.141602 
	C1447.756714,1198.993286 1464.867065,1194.240601 1480.772461,1186.181885 
	C1498.186890,1177.358765 1513.461304,1165.491333 1526.316406,1150.415405 
	C1540.177856,1134.159546 1550.268066,1115.963013 1555.890259,1095.576416 
	C1561.343140,1075.803223 1564.358154,1055.605835 1560.204102,1034.964478 
	C1559.423584,1031.085938 1560.094482,1026.915283 1560.386719,1023.053101 
	C1565.435181,1027.702026 1571.151367,1029.204712 1577.579224,1029.188477 
	C1609.336548,1029.108276 1641.094360,1029.162720 1672.851929,1029.169678 
M1098.454712,1023.966736 
	C1108.404297,1034.377075 1122.298828,1037.208252 1134.847412,1030.861450 
	C1142.647583,1026.916382 1147.950073,1020.960022 1148.265259,1011.457031 
	C1148.598145,1001.414551 1143.824829,994.707520 1135.355347,990.247986 
	C1128.822510,986.808167 1121.832886,985.888062 1114.573608,987.396240 
	C1097.526855,990.937744 1086.749512,1008.384766 1098.454712,1023.966736 
M1102.066162,1094.358154 
	C1103.742432,1098.830688 1104.765625,1103.706177 1107.226685,1107.694458 
	C1112.899902,1116.888550 1122.960205,1116.963867 1129.385986,1108.346069 
	C1136.638062,1098.620117 1137.312012,1081.133911 1130.846924,1070.439697 
	C1123.924194,1058.988525 1112.365479,1059.163330 1105.824463,1070.793823 
	C1101.818237,1077.917236 1101.249390,1085.595337 1102.066162,1094.358154 
z"/>
<path fill="#F2B056" opacity="1.000000" stroke="none" 
	d="
M938.970520,1032.937622 
	C939.307495,1044.671509 940.724304,1056.497681 939.731018,1068.117920 
	C938.199280,1086.038086 933.375610,1103.281006 925.368774,1119.626831 
	C918.255432,1134.148804 908.474182,1146.631592 897.802368,1158.526367 
	C894.601196,1162.094482 890.816528,1165.139160 887.126953,1168.712036 
	C873.270325,1167.577759 859.584106,1166.172852 845.902039,1164.727905 
	C830.733521,1163.126221 815.563660,1161.536255 800.404175,1159.852173 
	C785.560791,1158.203247 770.729614,1156.443359 755.893372,1154.729736 
	C739.587769,1152.846436 723.282898,1150.955688 706.976807,1149.077026 
	C697.263306,1147.957642 687.547974,1146.855347 677.326599,1145.355713 
	C670.849060,1135.036255 664.213806,1125.436890 659.072998,1115.094482 
	C652.404114,1101.677856 648.386780,1087.200439 647.214050,1072.212769 
	C646.481323,1062.849365 646.537659,1053.368652 647.021729,1043.980957 
	C647.497864,1034.745605 648.961121,1025.561157 650.450562,1016.255310 
	C654.070984,1016.128967 657.240234,1016.234741 660.391235,1016.042053 
	C664.834473,1015.770386 669.537170,1016.092834 673.645203,1014.716980 
	C683.407104,1011.447266 688.263550,1003.676514 688.497803,993.759949 
	C688.758179,982.742065 683.393250,974.739197 673.004578,970.228638 
	C674.051392,968.307739 674.820923,966.622437 675.929993,965.202209 
	C687.544922,950.328308 701.283386,937.796143 717.610229,928.272827 
	C722.423706,925.465027 727.651794,923.368103 732.725098,921.362671 
	C729.845276,949.053833 735.015442,974.642212 748.293335,998.698669 
	C771.602905,1040.930298 826.798035,1072.744995 883.089294,1059.818726 
	C903.513672,1055.128662 922.166809,1046.994873 938.240845,1032.980347 
	C938.484253,1032.968872 938.970520,1032.937622 938.970520,1032.937622 
z"/>
<path fill="#424142" opacity="1.000000" stroke="none" 
	d="
M592.949280,1488.870605 
	C573.367676,1525.455933 520.263977,1527.714355 496.217010,1495.616943 
	C488.337250,1485.098999 484.724976,1473.300781 486.732483,1459.976929 
	C487.014313,1458.106445 485.999451,1455.380981 484.624634,1454.024048 
	C473.062317,1442.610596 472.319458,1425.950684 483.126892,1414.635254 
	C493.576660,1403.694092 510.755890,1404.072754 522.487671,1415.250854 
	C523.877197,1416.574829 526.596985,1417.491455 528.455627,1417.172241 
	C539.634094,1415.253540 550.557007,1415.499146 561.436157,1419.042969 
	C563.149109,1419.601074 566.163757,1418.952881 567.410828,1417.701050 
	C575.828125,1409.252075 597.729553,1409.043945 606.868225,1421.519897 
	C615.720764,1433.605225 613.510254,1451.107056 600.833923,1460.042236 
	C597.777710,1462.196289 596.867188,1464.298584 597.056763,1467.743286 
	C597.454041,1474.960327 596.568542,1482.009644 592.949280,1488.870605 
z"/>
<path fill="#F7C36C" opacity="1.000000" stroke="none" 
	d="
M649.991211,1016.354309 
	C648.961121,1025.561157 647.497864,1034.745605 647.021729,1043.980957 
	C646.537659,1053.368652 646.481323,1062.849365 647.214050,1072.212769 
	C648.386780,1087.200439 652.404114,1101.677856 659.072998,1115.094482 
	C664.213806,1125.436890 670.849060,1135.036255 676.902527,1145.265137 
	C670.987732,1144.969238 664.990173,1144.374390 658.479431,1143.374756 
	C656.637085,1140.867798 655.387268,1138.710205 653.966614,1136.671631 
	C638.319031,1114.216675 624.211365,1090.835449 613.823425,1065.481934 
	C607.220581,1049.366455 601.903320,1032.724121 596.476807,1016.244629 
	C614.626404,1016.232239 632.308777,1016.293274 649.991211,1016.354309 
z"/>
<path fill="#C7523A" opacity="1.000000" stroke="none" 
	d="
M1074.118408,1511.648193 
	C1076.759277,1502.908447 1079.324219,1494.570190 1082.172607,1486.329956 
	C1085.961670,1475.368286 1089.971558,1464.482910 1094.529785,1453.257080 
	C1100.623657,1453.297729 1106.074463,1453.645996 1111.525146,1453.994263 
	C1117.242188,1474.712036 1122.010986,1495.618530 1123.959717,1517.892944 
	C1122.046997,1518.912720 1120.251465,1519.260254 1118.454712,1519.267456 
	C1103.643433,1519.327148 1088.831787,1519.323608 1074.020264,1519.339355 
	C1074.069824,1516.923950 1074.119263,1514.508545 1074.118408,1511.648193 
z"/>
<path fill="#EA5831" opacity="1.000000" stroke="none" 
	d="
M1068.373291,1367.605591 
	C1088.731323,1369.098022 1108.987671,1371.576538 1129.319092,1372.718872 
	C1148.520264,1373.797729 1167.800415,1373.471680 1187.973633,1373.836426 
	C1194.242798,1373.927246 1199.583862,1373.945068 1204.925049,1373.962891 
	C1203.715942,1374.628296 1202.558105,1375.730835 1201.288452,1375.879883 
	C1196.854736,1376.400391 1192.384888,1376.633667 1187.924072,1376.896973 
	C1181.143311,1377.297485 1174.360474,1377.671631 1167.575195,1377.983887 
	C1159.462646,1378.357300 1151.337646,1379.071289 1143.233521,1378.901001 
	C1123.176636,1378.479858 1103.125122,1377.724976 1083.079834,1376.899292 
	C1078.638062,1376.716431 1074.230957,1375.688232 1069.391357,1375.028809 
	C1068.751099,1372.674805 1068.527710,1370.341431 1068.373291,1367.605591 
z"/>
<path fill="#F4B3A5" opacity="1.000000" stroke="none" 
	d="
M1073.998291,1519.767334 
	C1088.831787,1519.323608 1103.643433,1519.327148 1118.454712,1519.267456 
	C1120.251465,1519.260254 1122.046997,1518.912720 1124.065186,1518.318848 
	C1125.209961,1523.212158 1126.132568,1528.509644 1127.090210,1534.199097 
	C1116.126099,1533.641235 1105.125488,1532.710449 1094.128784,1531.734497 
	C1087.723267,1531.166138 1081.324097,1530.525391 1074.478760,1529.877197 
	C1074.015747,1526.623291 1073.996094,1523.409180 1073.998291,1519.767334 
z"/>
<path fill="#EA5A32" opacity="1.000000" stroke="none" 
	d="
M596.009644,1016.318054 
	C601.903320,1032.724121 607.220581,1049.366455 613.823425,1065.481934 
	C624.211365,1090.835449 638.319031,1114.216675 653.966614,1136.671631 
	C655.387268,1138.710205 656.637085,1140.867798 658.043945,1143.287109 
	C655.690186,1143.323242 653.258728,1143.042236 650.437012,1142.608032 
	C644.426147,1132.887817 638.432922,1123.516479 633.276855,1113.705200 
	C626.499023,1100.807983 619.863342,1087.786377 614.119995,1074.408936 
	C608.117371,1060.427490 603.120361,1046.005859 597.950073,1031.680420 
	C596.217957,1026.881348 595.304565,1021.786621 594.351318,1016.449219 
	C595.127014,1016.153687 595.568359,1016.235840 596.009644,1016.318054 
z"/>
<path fill="#E97058" opacity="1.000000" stroke="none" 
	d="
M1070.086670,1412.323730 
	C1073.577515,1413.017944 1077.030884,1414.174927 1081.759766,1415.759399 
	C1077.932861,1418.598511 1074.840576,1420.892700 1071.400879,1423.304443 
	C1070.718628,1419.876831 1070.383789,1416.331787 1070.086670,1412.323730 
z"/>
<path fill="#8C574A" opacity="1.000000" stroke="none" 
	d="
M227.257843,542.847656 
	C224.605972,530.420593 222.006424,518.416016 219.455292,506.401215 
	C215.933594,489.815552 225.982269,475.473297 242.696518,473.179169 
	C254.618774,471.542755 267.610992,481.595886 270.120453,493.684753 
	C274.870026,516.565063 280.080963,539.349243 284.992676,562.196411 
	C287.418488,573.480347 289.500122,584.838257 291.925812,596.122192 
	C295.064209,610.721252 298.586273,625.240479 301.535797,639.876221 
	C302.648102,645.395508 303.477234,651.223328 302.962646,656.773926 
	C301.106018,676.800293 279.766174,686.440186 263.117279,675.049194 
	C258.031677,671.569763 254.190643,667.072937 252.809631,660.856995 
	C250.126343,648.779358 247.388885,636.713135 244.798935,624.615479 
	C239.991394,602.159485 235.286041,579.681580 230.508331,557.219116 
	C229.516022,552.553833 228.393997,547.916016 227.257843,542.847656 
z"/>
<path fill="#8C574A" opacity="1.000000" stroke="none" 
	d="
M308.140320,695.816772 
	C324.674530,711.616699 319.236938,735.481812 297.852203,742.209351 
	C284.557770,746.391663 270.041504,737.721069 265.988129,724.677368 
	C262.436798,713.249207 266.221954,701.786987 275.795776,694.795959 
	C285.102112,688.000366 297.593262,688.322205 308.140320,695.816772 
z"/>
<path fill="#C8543B" opacity="1.000000" stroke="none" 
	d="
M1152.354126,1519.901978 
	C1150.732300,1519.231079 1148.456665,1518.579224 1148.242554,1517.513428 
	C1144.432495,1498.553467 1140.870117,1479.543579 1137.273682,1460.540894 
	C1137.187256,1460.084961 1137.320068,1459.587280 1137.324951,1459.509644 
	C1154.737671,1472.407959 1172.273560,1485.397339 1190.017334,1498.668213 
	C1177.703491,1505.875977 1165.181641,1512.802124 1152.354126,1519.901978 
z"/>
<path fill="#F7C46C" opacity="1.000000" stroke="none" 
	d="
M732.689880,920.945374 
	C727.651794,923.368103 722.423706,925.465027 717.610229,928.272827 
	C701.283386,937.796143 687.544922,950.328308 675.929993,965.202209 
	C674.820923,966.622437 674.051392,968.307739 672.546753,970.151062 
	C668.982605,970.242310 665.996582,969.897095 663.009338,969.887024 
	C637.346985,969.800232 611.684509,969.774048 586.022034,969.729736 
	C585.028198,961.495361 584.034424,953.260986 583.510986,944.535828 
	C613.962219,944.028992 643.945862,944.217346 673.920776,943.789429 
	C678.751892,943.720520 684.210388,941.885559 688.216431,939.158997 
	C696.788086,933.325378 699.324402,922.146240 695.670166,911.816833 
	C692.648376,903.275146 683.795105,897.343628 673.721008,897.324707 
	C643.240479,897.267456 612.759827,897.278015 582.279236,897.262207 
	C585.274109,876.593994 587.148193,855.686462 591.499329,835.307861 
	C600.312988,794.028503 616.579224,755.467041 638.124573,719.215271 
	C651.573303,696.586670 667.542053,675.727722 685.099365,655.346924 
	C685.695312,654.597534 685.916870,654.302551 686.138489,654.007568 
	C688.008423,651.977722 689.878296,649.947876 692.213745,647.479980 
	C693.815430,645.708496 694.951538,644.375061 696.087646,643.041626 
	C696.087585,643.041626 696.029053,643.007812 696.253662,642.926880 
	C696.676270,642.567078 696.874268,642.288269 697.072266,642.009399 
	C697.072266,642.009399 697.004944,642.004700 697.241699,641.925293 
	C697.676086,641.566895 697.873718,641.288025 698.071411,641.009094 
	C698.071411,641.009094 698.004456,641.003357 698.244690,640.919678 
	C698.702515,640.560303 698.920044,640.284668 699.137634,640.008972 
	C699.998108,639.212891 700.858582,638.416870 702.088013,637.221985 
	C702.682617,636.551025 702.908203,636.278931 703.133850,636.006775 
	C704.002991,635.219055 704.872192,634.431396 706.117004,633.180481 
	C706.685913,632.153259 706.879150,631.589355 707.072388,631.025391 
	C707.072388,631.025391 707.009583,631.009399 707.328247,631.056213 
	C708.137695,630.741516 708.628418,630.380005 709.119141,630.018433 
	C710.981750,628.261902 712.844360,626.505432 715.187439,624.337646 
	C718.143188,621.311951 720.618530,618.697449 723.093933,616.082947 
	C723.093933,616.082947 723.081055,616.026611 723.326050,615.991577 
	C723.733643,615.649109 723.896240,615.341675 724.058838,615.034241 
	C724.058838,615.034241 723.999634,615.011780 724.327515,615.058350 
	C725.161499,614.747192 725.667664,614.389526 726.173828,614.031860 
	C726.443665,613.959351 726.668884,613.816528 727.258789,613.278809 
	C729.802246,610.983337 731.936279,609.012390 734.070312,607.041443 
	C734.070312,607.041443 734.004395,607.017639 734.342041,606.952148 
	C736.811035,604.940430 738.942383,602.994202 741.073669,601.047974 
	C741.073669,601.047974 741.003967,601.022705 741.345703,600.965637 
	C742.822693,599.633484 743.957886,598.358459 745.093079,597.083374 
	C745.093079,597.083374 745.070862,597.018799 745.415649,597.067017 
	C747.139832,596.224121 748.567078,595.398376 749.891296,594.431519 
	C761.982788,585.603027 773.762146,576.310669 786.190918,567.987366 
	C821.969849,544.026917 859.929077,524.127014 899.978455,508.240753 
	C906.414551,505.687775 912.710693,502.781830 919.071533,500.039062 
	C919.071533,500.039062 919.010925,500.011200 919.407471,500.028168 
	C926.550415,497.702271 933.296814,495.359375 940.043152,493.016541 
	C940.043152,493.016541 940.000488,492.989502 940.341919,493.005035 
	C941.518127,492.695129 942.352905,492.369690 943.187622,492.044250 
	C952.266724,489.472260 961.357422,486.940460 970.422729,484.320526 
	C996.141479,476.887543 1022.323059,471.806183 1048.916138,468.813202 
	C1057.971558,467.794067 1067.036011,466.855103 1076.666260,466.091248 
	C1077.418213,466.589966 1077.655640,466.819427 1077.944336,467.460510 
	C1077.913818,480.738220 1077.761230,493.548492 1077.940552,506.354156 
	C1077.992798,510.089172 1076.843262,511.203400 1073.118652,511.163269 
	C1056.652100,510.985870 1040.180664,510.931488 1023.714600,511.129578 
	C1002.060791,511.390015 985.506531,525.620544 982.235657,548.138367 
	C979.421936,567.508728 988.794434,588.063110 1009.887390,595.600769 
	C1010.658447,595.904785 1011.328430,595.993103 1012.409424,596.160889 
	C1014.939453,596.574158 1017.056274,597.182312 1019.177795,597.198792 
	C1036.961426,597.337158 1054.746582,597.474548 1072.529419,597.347412 
	C1076.554810,597.318665 1078.035278,598.340027 1077.957397,602.607239 
	C1077.723633,615.401184 1077.922729,628.203125 1077.799316,641.174561 
	C1077.769165,641.898132 1077.892578,642.449036 1078.127441,643.353699 
	C1078.491211,644.315308 1078.811401,644.904419 1078.986328,645.533813 
	C1084.553833,665.575012 1101.363159,677.797485 1123.203125,676.932129 
	C1143.977173,676.109009 1159.893188,662.450806 1163.760498,643.090576 
	C1164.020508,641.955627 1164.058716,640.979370 1164.119629,639.534668 
	C1164.171753,627.582947 1164.204102,616.099548 1164.230103,604.616211 
	C1164.246338,597.433533 1164.241943,597.447693 1171.654175,597.425232 
	C1188.628296,597.373840 1205.637939,597.919128 1222.558960,596.940002 
	C1229.154541,596.558350 1236.334595,593.919006 1241.894775,590.254333 
	C1260.463867,578.015625 1262.417969,559.197754 1256.989502,538.335022 
	C1252.694458,521.827454 1236.219604,511.252045 1218.060059,511.112274 
	C1203.914185,511.003387 1189.766968,511.088715 1175.620361,511.088135 
	C1164.230835,511.087677 1164.351562,511.086304 1164.198242,499.905212 
	C1164.034302,487.945068 1163.611816,475.988464 1163.302246,464.030334 
	C1178.046875,465.024536 1192.843628,465.541687 1207.522339,467.140961 
	C1223.684692,468.901917 1239.936890,470.744080 1255.794922,474.186646 
	C1281.756470,479.822601 1307.748169,485.732025 1333.157593,493.410614 
	C1379.540405,507.427246 1423.284302,527.669800 1464.649170,553.013550 
	C1505.343750,577.946655 1542.238770,607.567749 1574.703369,642.527954 
	C1601.091187,670.944336 1623.658569,702.186340 1641.857056,736.528931 
	C1659.571411,769.957764 1672.817749,805.006714 1680.419067,842.090210 
	C1684.963623,864.261353 1688.354248,886.605469 1687.554077,909.819580 
	C1647.917114,910.287048 1608.789551,910.251099 1569.662109,910.292725 
	C1557.188232,910.305969 1546.548950,918.375305 1545.054932,928.720215 
	C1542.667969,945.248779 1552.765747,956.965942 1569.477905,956.974304 
	C1608.605469,956.993713 1647.732910,956.978699 1686.860474,956.977600 
	C1685.702026,965.399292 1684.543701,973.821045 1682.746704,982.589111 
	C1648.112671,982.938477 1614.117188,982.940857 1580.121826,982.944885 
	C1563.622803,982.946838 1557.189331,988.030273 1553.281616,1003.788940 
	C1550.884521,999.192688 1548.814331,994.706177 1546.673706,990.253540 
	C1537.855835,971.911316 1526.140381,955.799927 1510.104858,942.606689 
	C1509.963989,941.502747 1509.894287,940.763489 1509.904297,939.561523 
	C1511.156128,878.176514 1470.394165,826.590088 1409.561035,813.381714 
	C1381.570923,807.304443 1354.123901,810.854126 1328.444092,823.956360 
	C1290.660645,843.234131 1268.408569,874.442688 1259.914307,916.333313 
	C1225.667847,909.893127 1191.592285,906.233704 1157.102661,905.482239 
	C1155.994263,905.103760 1154.994385,904.994751 1153.566162,904.847046 
	C1132.759888,904.830444 1112.381836,904.852478 1091.715576,904.706665 
	C1089.890869,904.957031 1088.354370,905.375244 1086.363281,905.843994 
	C1051.146973,906.147766 1016.773010,910.485291 982.333862,916.436829 
	C981.213013,912.134827 980.247070,908.475586 979.306396,904.809937 
	C964.039246,845.316528 906.158936,802.456177 838.650574,812.313293 
	C811.256348,816.313171 787.799133,828.472961 768.372009,848.149719 
	C749.154785,867.613831 737.406860,890.950867 733.137939,918.393005 
	C732.954285,919.490051 732.822083,920.217712 732.689880,920.945374 
z"/>
<path fill="#7A5247" opacity="1.000000" stroke="none" 
	d="
M1009.786316,595.385132 
	C988.794434,588.063110 979.421936,567.508728 982.235657,548.138367 
	C985.506531,525.620544 1002.060791,511.390015 1023.714600,511.129578 
	C1040.180664,510.931488 1056.652100,510.985870 1073.118652,511.163269 
	C1076.843262,511.203400 1077.992798,510.089172 1077.940552,506.354156 
	C1077.761230,493.548492 1077.913818,480.738220 1078.141602,467.284363 
	C1078.550781,466.165192 1078.758179,465.691345 1078.965576,465.217529 
	C1094.686890,464.504333 1110.408203,463.791107 1126.936768,463.322083 
	C1133.140259,463.421326 1138.536499,463.276337 1143.932861,463.131378 
	C1150.138306,463.389923 1156.343872,463.648468 1162.925781,463.968689 
	C1163.611816,475.988464 1164.034302,487.945068 1164.198242,499.905212 
	C1164.351562,511.086304 1164.230835,511.087677 1175.620361,511.088135 
	C1189.766968,511.088715 1203.914185,511.003387 1218.060059,511.112274 
	C1236.219604,511.252045 1252.694458,521.827454 1256.989502,538.335022 
	C1262.417969,559.197754 1260.463867,578.015625 1241.894775,590.254333 
	C1236.334595,593.919006 1229.154541,596.558350 1222.558960,596.940002 
	C1205.637939,597.919128 1188.628296,597.373840 1171.654175,597.425232 
	C1164.241943,597.447693 1164.246338,597.433533 1164.230103,604.616211 
	C1164.204102,616.099548 1164.171753,627.582947 1163.893311,639.801392 
	C1163.609131,641.440796 1163.573975,642.345032 1163.538696,643.249329 
	C1159.893188,662.450806 1143.977173,676.109009 1123.203125,676.932129 
	C1101.363159,677.797485 1084.553833,665.575012 1078.986328,645.533813 
	C1078.811401,644.904419 1078.491211,644.315308 1078.283691,643.177429 
	C1078.203369,642.098938 1078.078247,641.550415 1077.953003,641.001892 
	C1077.922729,628.203125 1077.723633,615.401184 1077.957397,602.607239 
	C1078.035278,598.340027 1076.554810,597.318665 1072.529419,597.347412 
	C1054.746582,597.474548 1036.961426,597.337158 1019.177795,597.198792 
	C1017.056274,597.182312 1014.939453,596.574158 1012.176392,595.966125 
	C1010.950317,595.589661 1010.368347,595.487427 1009.786316,595.385132 
z"/>
<path fill="#7A5247" opacity="1.000000" stroke="none" 
	d="
M1686.891846,956.536011 
	C1647.732910,956.978699 1608.605469,956.993713 1569.477905,956.974304 
	C1552.765747,956.965942 1542.667969,945.248779 1545.054932,928.720215 
	C1546.548950,918.375305 1557.188232,910.305969 1569.662109,910.292725 
	C1608.789551,910.251099 1647.917114,910.287048 1687.511597,910.306274 
	C1687.626831,925.577881 1687.275024,940.836121 1686.891846,956.536011 
z"/>
<path fill="#7B5347" opacity="1.000000" stroke="none" 
	d="
M1553.576050,1003.914307 
	C1557.189331,988.030273 1563.622803,982.946838 1580.121826,982.944885 
	C1614.117188,982.940857 1648.112671,982.938477 1682.583008,982.938232 
	C1680.748169,994.599487 1678.513428,1006.273560 1676.083374,1017.906860 
	C1675.342041,1021.455933 1674.063843,1024.892944 1672.941650,1028.775391 
	C1641.094360,1029.162720 1609.336548,1029.108276 1577.579224,1029.188477 
	C1571.151367,1029.204712 1565.435181,1027.702026 1560.232178,1022.753357 
	C1554.839844,1017.130798 1553.792969,1010.662903 1553.576050,1003.914307 
z"/>
<path fill="#7B5347" opacity="1.000000" stroke="none" 
	d="
M582.239624,897.707520 
	C612.759827,897.278015 643.240479,897.267456 673.721008,897.324707 
	C683.795105,897.343628 692.648376,903.275146 695.670166,911.816833 
	C699.324402,922.146240 696.788086,933.325378 688.216431,939.158997 
	C684.210388,941.885559 678.751892,943.720520 673.920776,943.789429 
	C643.945862,944.217346 613.962219,944.028992 583.518311,944.088440 
	C582.721558,942.548523 582.102295,940.965942 582.098938,939.381958 
	C582.069885,925.639038 582.151428,911.895935 582.239624,897.707520 
z"/>
<path fill="#7B5247" opacity="1.000000" stroke="none" 
	d="
M585.780518,970.029907 
	C611.684509,969.774048 637.346985,969.800232 663.009338,969.887024 
	C665.996582,969.897095 668.982605,970.242310 672.427063,970.509644 
	C683.393250,974.739197 688.758179,982.742065 688.497803,993.759949 
	C688.263550,1003.676514 683.407104,1011.447266 673.645203,1014.716980 
	C669.537170,1016.092834 664.834473,1015.770386 660.391235,1016.042053 
	C657.240234,1016.234741 654.070984,1016.128967 650.450562,1016.255310 
	C632.308777,1016.293274 614.626404,1016.232239 596.476807,1016.244629 
	C595.568359,1016.235840 595.127014,1016.153687 594.348633,1016.048462 
	C591.187378,1000.793701 588.363220,985.561951 585.780518,970.029907 
z"/>
<path fill="#EB6036" opacity="1.000000" stroke="none" 
	d="
M918.664062,500.029175 
	C912.710693,502.781830 906.414551,505.687775 899.978455,508.240753 
	C859.929077,524.127014 821.969849,544.026917 786.190918,567.987366 
	C773.762146,576.310669 761.982788,585.603027 749.891296,594.431519 
	C748.567078,595.398376 747.139832,596.224121 745.400635,597.097778 
	C752.169739,591.170288 759.054810,584.932983 766.472168,579.410583 
	C790.661621,561.401001 815.979004,545.061829 843.202881,532.059082 
	C865.831116,521.251282 889.021362,511.617920 912.000916,501.551422 
	C913.938110,500.702789 916.164551,500.514435 918.664062,500.029175 
z"/>
<path fill="#EB6036" opacity="1.000000" stroke="none" 
	d="
M939.630127,493.017578 
	C933.296814,495.359375 926.550415,497.702271 919.401794,500.061005 
	C925.738708,497.724121 932.477844,495.371399 939.630127,493.017578 
z"/>
<path fill="#98673D" opacity="1.000000" stroke="none" 
	d="
M1143.604492,462.894714 
	C1138.536499,463.276337 1133.140259,463.421326 1127.406982,463.348328 
	C1132.471924,462.972931 1137.874023,462.815521 1143.604492,462.894714 
z"/>
<path fill="#EB6036" opacity="1.000000" stroke="none" 
	d="
M722.746643,616.114868 
	C720.618530,618.697449 718.143188,621.311951 715.354736,624.065979 
	C717.494202,621.519287 719.946777,618.833069 722.746643,616.114868 
z"/>
<path fill="#EB6036" opacity="1.000000" stroke="none" 
	d="
M740.705261,601.044128 
	C738.942383,602.994202 736.811035,604.940430 734.358643,606.983032 
	C736.137329,605.066345 738.237061,603.053284 740.705261,601.044128 
z"/>
<path fill="#F0985A" opacity="1.000000" stroke="none" 
	d="
M1204.958008,1373.744873 
	C1199.583862,1373.945068 1194.242798,1373.927246 1188.440674,1373.821167 
	C1193.358643,1373.490845 1198.737793,1373.248901 1204.587891,1373.049072 
	C1205.058960,1373.091064 1204.990967,1373.526855 1204.958008,1373.744873 
z"/>
<path fill="#EB6036" opacity="1.000000" stroke="none" 
	d="
M733.701172,607.039978 
	C731.936279,609.012390 729.802246,610.983337 727.360474,613.103760 
	C729.145935,611.181702 731.239014,609.110107 733.701172,607.039978 
z"/>
<path fill="#EB6036" opacity="1.000000" stroke="none" 
	d="
M744.745728,597.113281 
	C743.957886,598.358459 742.822693,599.633484 741.365723,600.996826 
	C742.162170,599.771179 743.280273,598.457214 744.745728,597.113281 
z"/>
<path fill="#EB6036" opacity="1.000000" stroke="none" 
	d="
M695.734253,643.087769 
	C694.951538,644.375061 693.815430,645.708496 692.381348,647.212646 
	C693.182556,645.966919 694.281738,644.550415 695.734253,643.087769 
z"/>
<path fill="#DAA963" opacity="1.000000" stroke="none" 
	d="
M1078.699951,465.212982 
	C1078.758179,465.691345 1078.550781,466.165192 1078.145996,466.815186 
	C1077.655640,466.819427 1077.418213,466.589966 1077.127441,466.077271 
	C1077.490479,465.637207 1077.962524,465.422821 1078.699951,465.212982 
z"/>
<path fill="#F4B3A5" opacity="1.000000" stroke="none" 
	d="
M1196.911133,1390.645020 
	C1196.338501,1390.740967 1195.604858,1390.568359 1194.743652,1390.121582 
	C1195.327393,1390.023804 1196.038818,1390.200073 1196.911133,1390.645020 
z"/>
<path fill="#EB6036" opacity="1.000000" stroke="none" 
	d="
M942.834717,492.042969 
	C942.352905,492.369690 941.518127,492.695129 940.338623,493.030060 
	C940.823120,492.706970 941.652466,492.374359 942.834717,492.042969 
z"/>
<path fill="#EB6036" opacity="1.000000" stroke="none" 
	d="
M708.815186,630.056335 
	C708.628418,630.380005 708.137695,630.741516 707.336182,631.087646 
	C707.520691,630.746216 708.015991,630.420166 708.815186,630.056335 
z"/>
<path fill="#EB6036" opacity="1.000000" stroke="none" 
	d="
M725.862671,614.063232 
	C725.667664,614.389526 725.161499,614.747192 724.340149,615.087402 
	C724.533813,614.744751 725.042603,614.419739 725.862671,614.063232 
z"/>
<path fill="#EB6036" opacity="1.000000" stroke="none" 
	d="
M706.842529,631.224854 
	C706.879150,631.589355 706.685913,632.153259 706.255737,632.919373 
	C706.216736,632.555786 706.414673,631.990051 706.842529,631.224854 
z"/>
<path fill="#EB6036" opacity="1.000000" stroke="none" 
	d="
M685.902954,654.159790 
	C685.916870,654.302551 685.695312,654.597534 685.246826,655.056458 
	C685.235779,654.917603 685.451599,654.614746 685.902954,654.159790 
z"/>
<path fill="#EB6036" opacity="1.000000" stroke="none" 
	d="
M696.858398,642.147278 
	C696.874268,642.288269 696.676270,642.567078 696.243652,642.959229 
	C696.220947,642.809998 696.432739,642.547607 696.858398,642.147278 
z"/>
<path fill="#EB6036" opacity="1.000000" stroke="none" 
	d="
M697.857666,641.146790 
	C697.873718,641.288025 697.676086,641.566895 697.243896,641.958923 
	C697.220825,641.809509 697.432312,641.546997 697.857666,641.146790 
z"/>
<path fill="#EB6036" opacity="1.000000" stroke="none" 
	d="
M723.851013,615.165344 
	C723.896240,615.341675 723.733643,615.649109 723.302246,616.007935 
	C723.179749,615.759521 723.382996,615.505249 723.851013,615.165344 
z"/>
<path fill="#EB6036" opacity="1.000000" stroke="none" 
	d="
M698.910034,640.140930 
	C698.920044,640.284668 698.702515,640.560303 698.246460,640.953247 
	C698.232788,640.804626 698.457642,640.538757 698.910034,640.140930 
z"/>
<path fill="#EB6036" opacity="1.000000" stroke="none" 
	d="
M702.904175,636.143799 
	C702.908203,636.278931 702.682617,636.551025 702.229919,636.963379 
	C702.226746,636.829224 702.450623,636.554993 702.904175,636.143799 
z"/>
<path fill="#EA5630" opacity="1.000000" stroke="none" 
	d="
M1267.896729,1454.627441 
	C1242.888550,1455.998901 1217.921753,1457.107910 1192.945435,1457.918823 
	C1186.518311,1458.127441 1180.060547,1457.397095 1173.176758,1457.130371 
	C1161.886353,1448.029419 1151.036133,1438.896240 1140.356201,1429.193359 
	C1141.157715,1428.434814 1141.782471,1428.107422 1142.421387,1428.076782 
	C1164.326172,1427.027222 1186.248047,1426.250000 1208.129883,1424.847534 
	C1215.802368,1424.355835 1223.376831,1422.337036 1230.996094,1421.015503 
	C1248.165894,1426.697388 1262.101318,1435.973633 1267.896729,1454.627441 
z"/>
<path fill="#EA664C" opacity="1.000000" stroke="none" 
	d="
M1230.737305,1420.755859 
	C1223.376831,1422.337036 1215.802368,1424.355835 1208.129883,1424.847534 
	C1186.248047,1426.250000 1164.326172,1427.027222 1142.421387,1428.076782 
	C1141.782471,1428.107422 1141.157715,1428.434814 1140.200195,1428.899780 
	C1136.229736,1425.873413 1132.585571,1422.571167 1127.875366,1418.302856 
	C1163.217529,1409.998169 1196.939209,1409.681030 1230.737305,1420.755859 
z"/>
<path fill="#EA5A32" opacity="1.000000" stroke="none" 
	d="
M1111.560303,1453.637939 
	C1106.074463,1453.645996 1100.623657,1453.297729 1094.729248,1452.935425 
	C1097.367798,1445.343750 1100.450073,1437.766113 1103.532471,1430.188354 
	C1103.883545,1430.195923 1104.234497,1430.203369 1104.585571,1430.210938 
	C1106.389648,1436.582642 1108.168579,1442.961792 1110.017944,1449.320435 
	C1110.413086,1450.678833 1111.062988,1451.963135 1111.560303,1453.637939 
z"/>
<path fill="#F2B056" opacity="1.000000" stroke="none" 
	d="
M1553.281616,1003.788940 
	C1553.792969,1010.662903 1554.839844,1017.130798 1559.941040,1022.579773 
	C1560.094482,1026.915283 1559.423584,1031.085938 1560.204102,1034.964478 
	C1564.358154,1055.605835 1561.343140,1075.803223 1555.890259,1095.576416 
	C1550.268066,1115.963013 1540.177856,1134.159546 1526.316406,1150.415405 
	C1513.461304,1165.491333 1498.186890,1177.358765 1480.772461,1186.181885 
	C1464.867065,1194.240601 1447.756714,1198.993286 1429.850098,1201.141602 
	C1409.420288,1203.592773 1389.668335,1200.874634 1370.308716,1194.943359 
	C1351.536987,1189.192261 1334.616211,1179.774780 1319.500732,1167.086060 
	C1308.182617,1157.585083 1298.666504,1146.637573 1290.746338,1134.198975 
	C1279.528198,1116.580933 1272.387695,1097.526001 1268.959839,1076.883423 
	C1265.487671,1055.972900 1267.813110,1035.508789 1272.301392,1015.132874 
	C1273.184937,1011.121887 1275.242065,1007.369507 1277.198120,1003.366272 
	C1309.720093,1048.946899 1352.660278,1069.975098 1408.669312,1059.847290 
	C1438.473145,1054.458008 1462.836304,1039.148193 1482.028564,1015.766235 
	C1499.383423,994.622681 1508.209229,970.104004 1510.175903,942.971436 
	C1526.140381,955.799927 1537.855835,971.911316 1546.673706,990.253540 
	C1548.814331,994.706177 1550.884521,999.192688 1553.281616,1003.788940 
z"/>
<path fill="#894934" opacity="1.000000" stroke="none" 
	d="
M733.189270,918.023621 
	C737.406860,890.950867 749.154785,867.613831 768.372009,848.149719 
	C787.799133,828.472961 811.256348,816.313171 838.650574,812.313293 
	C906.158936,802.456177 964.039246,845.316528 979.306396,904.809937 
	C980.247070,908.475586 981.213013,912.134827 982.333862,916.436829 
	C1016.773010,910.485291 1051.146973,906.147766 1086.760498,905.853149 
	C1089.076050,905.499268 1090.539917,905.186951 1092.003784,904.874512 
	C1112.381836,904.852478 1132.759888,904.830444 1153.818359,905.084290 
	C1155.402954,905.490662 1156.307007,905.621155 1157.211182,905.751709 
	C1191.592285,906.233704 1225.667847,909.893127 1259.914307,916.333313 
	C1268.408569,874.442688 1290.660645,843.234131 1328.444092,823.956360 
	C1354.123901,810.854126 1381.570923,807.304443 1409.561035,813.381714 
	C1470.394165,826.590088 1511.156128,878.176514 1509.546143,939.541138 
	C1507.606689,939.330200 1505.973389,938.876953 1504.626831,937.988892 
	C1498.677002,934.065063 1492.809692,930.016052 1486.759155,925.771790 
	C1486.357910,925.016785 1486.109985,924.502380 1485.720093,923.617065 
	C1483.477417,905.182434 1477.092529,888.787964 1465.808594,874.520203 
	C1450.099365,854.656982 1430.405396,841.344238 1404.949951,836.665161 
	C1392.050171,834.293945 1379.324951,832.926941 1366.517822,835.539917 
	C1318.459839,845.344910 1289.343384,879.604309 1282.404175,923.753967 
	C1279.645508,941.306458 1282.142822,959.335266 1290.043457,976.208008 
	C1289.983765,976.656311 1289.964966,976.836304 1289.622803,977.113159 
	C1285.162476,985.196106 1281.025391,993.182312 1276.888184,1001.168518 
	C1270.002319,991.187317 1265.565552,980.091797 1262.845703,968.388733 
	C1261.057617,960.695618 1260.175659,952.786804 1259.019531,944.955139 
	C1258.663940,942.546143 1258.570435,940.448364 1255.361572,939.988953 
	C1243.575928,938.301453 1231.843262,936.233032 1220.043579,934.660339 
	C1211.356567,933.502441 1202.584839,932.997742 1193.870972,932.022095 
	C1161.717041,928.421814 1129.439941,928.122498 1097.174805,929.070618 
	C1080.119507,929.571716 1063.098755,931.487427 1046.082520,932.992249 
	C1033.047852,934.145020 1020.025024,935.492737 1007.035767,937.072693 
	C1000.334473,937.887878 993.723328,939.430298 987.060059,940.578003 
	C984.446899,941.028137 983.213013,942.144287 983.012695,945.096619 
	C980.627869,980.258484 965.541382,1009.117310 939.143127,1032.654541 
	C938.970520,1032.937622 938.484253,1032.968872 938.241211,1032.540039 
	C936.862915,1025.813721 935.873047,1019.484619 934.505432,1013.238220 
	C934.084290,1011.314880 932.631470,1009.617493 931.789185,1007.568481 
	C932.229004,1006.844788 932.530701,1006.369385 933.116821,1005.719055 
	C955.461182,981.128113 963.493347,952.264709 958.688110,920.180908 
	C951.710449,873.591736 913.136902,837.652893 864.461426,834.226196 
	C835.978577,832.221191 810.579285,841.266724 789.246704,860.477478 
	C774.054138,874.158875 763.400574,890.777466 758.668762,911.009277 
	C758.268127,911.313110 758.037109,911.570068 757.375488,911.896973 
	C749.026367,913.985840 741.107788,916.004761 733.189270,918.023621 
z"/>
<path fill="#783D2E" opacity="1.000000" stroke="none" 
	d="
M1486.912476,926.012390 
	C1492.809692,930.016052 1498.677002,934.065063 1504.626831,937.988892 
	C1505.973389,938.876953 1507.606689,939.330200 1509.466309,940.003906 
	C1509.894287,940.763489 1509.963989,941.502747 1510.104858,942.606689 
	C1508.209229,970.104004 1499.383423,994.622681 1482.028564,1015.766235 
	C1462.836304,1039.148193 1438.473145,1054.458008 1408.669312,1059.847290 
	C1352.660278,1069.975098 1309.720093,1048.946899 1277.360229,1003.033081 
	C1277.026733,1002.463318 1276.971313,1002.095032 1276.901978,1001.447632 
	C1281.025391,993.182312 1285.162476,985.196106 1289.873169,977.354004 
	C1307.087646,1012.431274 1334.220825,1033.380371 1372.857910,1038.152466 
	C1420.245483,1044.005371 1465.526733,1015.276672 1481.141724,970.221680 
	C1486.124023,955.846375 1487.251953,941.043640 1486.912476,926.012390 
z"/>
<path fill="#98673D" opacity="1.000000" stroke="none" 
	d="
M1098.221191,1023.690308 
	C1086.749512,1008.384766 1097.526855,990.937744 1114.573608,987.396240 
	C1121.832886,985.888062 1128.822510,986.808167 1135.355347,990.247986 
	C1143.824829,994.707520 1148.598145,1001.414551 1148.265259,1011.457031 
	C1147.950073,1020.960022 1142.647583,1026.916382 1134.847412,1030.861450 
	C1122.298828,1037.208252 1108.404297,1034.377075 1098.221191,1023.690308 
z"/>
<path fill="#A54B31" opacity="1.000000" stroke="none" 
	d="
M1102.037354,1093.932861 
	C1101.249390,1085.595337 1101.818237,1077.917236 1105.824463,1070.793823 
	C1112.365479,1059.163330 1123.924194,1058.988525 1130.846924,1070.439697 
	C1137.312012,1081.133911 1136.638062,1098.620117 1129.385986,1108.346069 
	C1122.960205,1116.963867 1112.899902,1116.888550 1107.226685,1107.694458 
	C1104.765625,1103.706177 1103.742432,1098.830688 1102.037354,1093.932861 
z"/>
<path fill="#783D2E" opacity="1.000000" stroke="none" 
	d="
M733.137939,918.393005 
	C741.107788,916.004761 749.026367,913.985840 757.364014,912.354980 
	C757.195618,914.779907 756.101990,916.817444 756.104797,918.853455 
	C756.120117,929.878357 755.823547,940.951904 756.745361,951.915283 
	C757.933899,966.050842 763.502563,978.871826 770.924500,990.886719 
	C794.029175,1028.289429 840.210327,1046.802612 882.487549,1035.960083 
	C901.550171,1031.071167 917.583252,1021.249451 931.651062,1007.816650 
	C932.631470,1009.617493 934.084290,1011.314880 934.505432,1013.238220 
	C935.873047,1019.484619 936.862915,1025.813721 937.997864,1032.551514 
	C922.166809,1046.994873 903.513672,1055.128662 883.089294,1059.818726 
	C826.798035,1072.744995 771.602905,1040.930298 748.293335,998.698669 
	C735.015442,974.642212 729.845276,949.053833 732.725098,921.362671 
	C732.822083,920.217712 732.954285,919.490051 733.137939,918.393005 
z"/>
<path fill="#BA7F4C" opacity="1.000000" stroke="none" 
	d="
M1091.715576,904.706726 
	C1090.539917,905.186951 1089.076050,905.499268 1087.215088,905.802490 
	C1088.354370,905.375244 1089.890869,904.957031 1091.715576,904.706726 
z"/>
<path fill="#BE8F5B" opacity="1.000000" stroke="none" 
	d="
M1163.760498,643.090576 
	C1163.573975,642.345032 1163.609131,641.440796 1163.870605,640.269775 
	C1164.058716,640.979370 1164.020508,641.955627 1163.760498,643.090576 
z"/>
<path fill="#BA7F4C" opacity="1.000000" stroke="none" 
	d="
M1157.102661,905.482239 
	C1156.307007,905.621155 1155.402954,905.490662 1154.246582,905.122925 
	C1154.994385,904.994751 1155.994263,905.103760 1157.102661,905.482239 
z"/>
<path fill="#BE8F5B" opacity="1.000000" stroke="none" 
	d="
M1077.799316,641.174561 
	C1078.078247,641.550415 1078.203369,642.098938 1078.172363,642.823730 
	C1077.892578,642.449036 1077.769165,641.898132 1077.799316,641.174561 
z"/>
<path fill="#BE8F5B" opacity="1.000000" stroke="none" 
	d="
M1009.887390,595.600830 
	C1010.368347,595.487427 1010.950317,595.589661 1011.765381,595.886719 
	C1011.328430,595.993103 1010.658447,595.904785 1009.887390,595.600830 
z"/>
<path fill="#F1B056" opacity="1.000000" stroke="none" 
	d="
M1486.759155,925.771790 
	C1487.251953,941.043640 1486.124023,955.846375 1481.141724,970.221680 
	C1465.526733,1015.276672 1420.245483,1044.005371 1372.857910,1038.152466 
	C1334.220825,1033.380371 1307.087646,1012.431274 1290.196533,977.257263 
	C1289.964966,976.836304 1289.983765,976.656311 1290.281616,975.979004 
	C1291.632935,973.612610 1292.411255,971.477234 1293.824951,969.918091 
	C1302.477295,960.376404 1310.763184,950.412109 1320.200439,941.704163 
	C1326.544067,935.850647 1334.585083,931.836548 1341.937988,927.419983 
	C1344.083496,933.968872 1345.488647,940.434753 1348.372925,946.154907 
	C1354.199219,957.710022 1364.853271,963.919800 1376.820557,966.599365 
	C1383.024292,967.988525 1390.394043,966.806274 1396.635010,964.857544 
	C1410.719849,960.459900 1420.759521,951.471252 1424.099854,936.258240 
	C1426.198608,926.699829 1425.168579,917.354980 1423.570312,907.999023 
	C1441.605835,908.458496 1458.223633,912.902954 1474.239014,920.014648 
	C1477.966553,921.669861 1481.980103,922.680664 1485.862061,923.988037 
	C1486.109985,924.502380 1486.357910,925.016785 1486.759155,925.771790 
z"/>
<path fill="#F6C36C" opacity="1.000000" stroke="none" 
	d="
M758.838440,910.962463 
	C763.400574,890.777466 774.054138,874.158875 789.246704,860.477478 
	C810.579285,841.266724 835.978577,832.221191 864.461426,834.226196 
	C913.136902,837.652893 951.710449,873.591736 958.688110,920.180908 
	C963.493347,952.264709 955.461182,981.128113 932.837769,1005.527466 
	C931.690491,1004.348755 931.130737,1003.174011 930.519104,1002.026917 
	C924.482727,990.705994 919.099915,978.963013 912.174011,968.214539 
	C907.133362,960.391724 900.051880,953.883972 893.937561,946.435364 
	C899.055420,936.674194 900.006775,926.758362 898.091248,916.335632 
	C892.849121,887.814026 867.038574,879.874756 844.829712,885.209351 
	C832.181519,888.247437 824.031250,897.632935 818.082275,909.195190 
	C815.946472,909.048889 814.262329,909.107178 812.631592,908.839722 
	C794.551270,905.875061 776.670898,907.769287 758.838440,910.962463 
z"/>
<path fill="#F1B056" opacity="1.000000" stroke="none" 
	d="
M758.668762,911.009277 
	C776.670898,907.769287 794.551270,905.875061 812.631592,908.839722 
	C814.262329,909.107178 815.946472,909.048889 818.061096,909.591492 
	C817.994690,911.236023 817.369263,912.397034 816.967224,913.630859 
	C812.105835,928.546814 818.012573,946.706482 831.127625,957.401611 
	C841.143127,965.569275 852.815918,969.133972 865.255615,966.613892 
	C877.215576,964.190857 887.117920,957.413208 893.880249,946.789917 
	C900.051880,953.883972 907.133362,960.391724 912.174011,968.214539 
	C919.099915,978.963013 924.482727,990.705994 930.519104,1002.026917 
	C931.130737,1003.174011 931.690491,1004.348755 932.553345,1005.702271 
	C932.530701,1006.369385 932.229004,1006.844788 931.789185,1007.568481 
	C917.583252,1021.249451 901.550171,1031.071167 882.487549,1035.960083 
	C840.210327,1046.802612 794.029175,1028.289429 770.924500,990.886719 
	C763.502563,978.871826 757.933899,966.050842 756.745361,951.915283 
	C755.823547,940.951904 756.120117,929.878357 756.104797,918.853455 
	C756.101990,916.817444 757.195618,914.779907 757.794678,912.285034 
	C758.037109,911.570068 758.268127,911.313110 758.668762,911.009277 
z"/>
<path fill="#F6C36C" opacity="1.000000" stroke="none" 
	d="
M1341.866699,926.999573 
	C1334.585083,931.836548 1326.544067,935.850647 1320.200439,941.704163 
	C1310.763184,950.412109 1302.477295,960.376404 1293.824951,969.918091 
	C1292.411255,971.477234 1291.632935,973.612610 1290.322510,975.710571 
	C1282.142822,959.335266 1279.645508,941.306458 1282.404175,923.753967 
	C1289.343384,879.604309 1318.459839,845.344910 1366.517822,835.539917 
	C1379.324951,832.926941 1392.050171,834.293945 1404.949951,836.665161 
	C1430.405396,841.344238 1450.099365,854.656982 1465.808594,874.520203 
	C1477.092529,888.787964 1483.477417,905.182434 1485.720093,923.617065 
	C1481.980103,922.680664 1477.966553,921.669861 1474.239014,920.014648 
	C1458.223633,912.902954 1441.605835,908.458496 1423.425903,907.679443 
	C1422.138184,906.235474 1421.388916,905.144531 1420.749268,903.992615 
	C1409.339966,883.448364 1383.840698,879.120239 1366.000000,887.454773 
	C1349.755249,895.043884 1342.208740,909.111267 1341.866699,926.999573 
z"/>
<path fill="#060302" opacity="1.000000" stroke="none" 
	d="
M1341.937988,927.419983 
	C1342.208740,909.111267 1349.755249,895.043884 1366.000000,887.454773 
	C1383.840698,879.120239 1409.339966,883.448364 1420.749268,903.992615 
	C1421.388916,905.144531 1422.138184,906.235474 1422.980835,907.674316 
	C1425.168579,917.354980 1426.198608,926.699829 1424.099854,936.258240 
	C1420.759521,951.471252 1410.719849,960.459900 1396.635010,964.857544 
	C1390.394043,966.806274 1383.024292,967.988525 1376.820557,966.599365 
	C1364.853271,963.919800 1354.199219,957.710022 1348.372925,946.154907 
	C1345.488647,940.434753 1344.083496,933.968872 1341.937988,927.419983 
z"/>
<path fill="#070303" opacity="1.000000" stroke="none" 
	d="
M893.937561,946.435364 
	C887.117920,957.413208 877.215576,964.190857 865.255615,966.613892 
	C852.815918,969.133972 841.143127,965.569275 831.127625,957.401611 
	C818.012573,946.706482 812.105835,928.546814 816.967224,913.630859 
	C817.369263,912.397034 817.994690,911.236023 818.537598,909.644897 
	C824.031250,897.632935 832.181519,888.247437 844.829712,885.209351 
	C867.038574,879.874756 892.849121,887.814026 898.091248,916.335632 
	C900.006775,926.758362 899.055420,936.674194 893.937561,946.435364 
z"/>
</svg>